<svg width="264" height="265" viewBox="0 0 264 265" fill="none" xmlns="http://www.w3.org/2000/svg">
<rect x="1.7959" y="1.80273" width="260.408" height="261.395" fill="#3D2F19"/>
<rect x="10.3267" y="10.7798" width="243.796" height="243.89" fill="url(#paint0_linear)"/>
<rect x="11.2246" y="223.471" width="30.2405" height="30.2522" fill="url(#paint1_linear)"/>
<rect x="11.2246" y="162.968" width="30.2405" height="30.2522" fill="url(#paint2_linear)"/>
<rect x="41.4648" y="193.22" width="30.2405" height="30.2522" fill="url(#paint3_linear)"/>
<rect x="101.946" y="193.22" width="30.2405" height="30.2522" fill="url(#paint4_linear)"/>
<rect x="162.427" y="193.22" width="30.2405" height="30.2522" fill="url(#paint5_linear)"/>
<rect x="222.908" y="193.22" width="30.2405" height="30.2522" fill="url(#paint6_linear)"/>
<rect x="71.7056" y="162.968" width="30.2405" height="30.2522" fill="url(#paint7_linear)"/>
<rect x="132.187" y="162.968" width="30.2405" height="30.2522" fill="url(#paint8_linear)"/>
<rect x="192.668" y="162.968" width="30.2405" height="30.2522" fill="url(#paint9_linear)"/>
<rect x="11.2246" y="102.462" width="30.2405" height="30.2522" fill="url(#paint10_linear)"/>
<rect x="41.4648" y="132.717" width="30.2405" height="30.2522" fill="url(#paint11_linear)"/>
<rect x="101.946" y="132.717" width="30.2405" height="30.2522" fill="url(#paint12_linear)"/>
<rect x="162.427" y="132.717" width="30.2405" height="30.2522" fill="url(#paint13_linear)"/>
<rect x="222.908" y="132.717" width="30.2405" height="30.2522" fill="url(#paint14_linear)"/>
<rect x="71.7056" y="102.462" width="30.2405" height="30.2522" fill="url(#paint15_linear)"/>
<rect x="132.187" y="102.462" width="30.2405" height="30.2522" fill="url(#paint16_linear)"/>
<rect x="192.668" y="102.462" width="30.2405" height="30.2522" fill="url(#paint17_linear)"/>
<rect x="11.2246" y="41.9604" width="30.2405" height="30.2522" fill="url(#paint18_linear)"/>
<rect x="41.3682" y="11.6777" width="30.2388" height="30.2504" fill="url(#paint19_linear)"/>
<rect x="101.946" y="11.7056" width="30.2405" height="30.2522" fill="url(#paint20_linear)"/>
<rect x="162.427" y="11.7056" width="30.2405" height="30.2522" fill="url(#paint21_linear)"/>
<rect x="222.908" y="11.7056" width="30.2405" height="30.2522" fill="url(#paint22_linear)"/>
<rect x="41.4653" y="72.2114" width="30.2406" height="30.2522" fill="url(#paint23_linear)"/>
<rect x="101.946" y="72.2114" width="30.2406" height="30.2522" fill="url(#paint24_linear)"/>
<rect x="162.427" y="72.2114" width="30.2405" height="30.2522" fill="url(#paint25_linear)"/>
<rect x="222.908" y="72.2114" width="30.2406" height="30.2522" fill="url(#paint26_linear)"/>
<rect x="71.7056" y="41.9604" width="30.2405" height="30.2522" fill="url(#paint27_linear)"/>
<rect x="132.187" y="41.9604" width="30.2405" height="30.2522" fill="url(#paint28_linear)"/>
<rect x="192.668" y="41.9604" width="30.2405" height="30.2522" fill="url(#paint29_linear)"/>
<rect x="71.7056" y="223.471" width="30.2405" height="30.2522" fill="url(#paint30_linear)"/>
<rect x="132.187" y="223.471" width="30.2405" height="30.2522" fill="url(#paint31_linear)"/>
<rect x="192.668" y="223.471" width="30.2405" height="30.2522" fill="url(#paint32_linear)"/>
<rect x="41.4648" y="223.471" width="30.2405" height="30.2522" fill="#3D2F19"/>
<rect x="11.2246" y="193.22" width="30.2405" height="30.2522" fill="#3D2F19"/>
<rect x="71.7056" y="193.22" width="30.2405" height="30.2522" fill="#3D2F19"/>
<rect x="132.187" y="193.22" width="30.2405" height="30.2522" fill="#3D2F19"/>
<rect x="192.668" y="193.22" width="30.2405" height="30.2522" fill="#3D2F19"/>
<rect x="11.2246" y="132.717" width="30.2405" height="30.2522" fill="#3D2F19"/>
<rect x="41.4653" y="162.968" width="30.2406" height="30.2522" fill="#3D2F19"/>
<rect x="101.946" y="162.968" width="30.2406" height="30.2522" fill="#3D2F19"/>
<rect x="162.427" y="162.968" width="30.2405" height="30.2522" fill="#3D2F19"/>
<rect x="222.908" y="162.968" width="30.2406" height="30.2522" fill="#3D2F19"/>
<rect x="71.7056" y="132.717" width="30.2405" height="30.2522" fill="#3D2F19"/>
<rect x="132.187" y="132.717" width="30.2405" height="30.2522" fill="#3D2F19"/>
<rect x="192.668" y="132.717" width="30.2405" height="30.2522" fill="#3D2F19"/>
<rect x="11.2246" y="72.2114" width="30.2405" height="30.2522" fill="#3D2F19"/>
<rect x="41.4648" y="102.462" width="30.2405" height="30.2522" fill="#3D2F19"/>
<rect x="101.946" y="102.462" width="30.2405" height="30.2522" fill="#3D2F19"/>
<rect x="162.427" y="102.462" width="30.2405" height="30.2522" fill="#3D2F19"/>
<rect x="222.908" y="102.462" width="30.2405" height="30.2522" fill="#3D2F19"/>
<rect x="71.7056" y="72.2114" width="30.2405" height="30.2522" fill="#3D2F19"/>
<rect x="132.187" y="72.2114" width="30.2405" height="30.2522" fill="#3D2F19"/>
<rect x="192.668" y="72.2114" width="30.2405" height="30.2522" fill="#3D2F19"/>
<rect x="11.2246" y="11.7056" width="30.2405" height="30.2522" fill="#3D2F19"/>
<rect x="41.4648" y="41.9604" width="30.2405" height="30.2522" fill="#3D2F19"/>
<rect x="101.946" y="41.9604" width="30.2405" height="30.2522" fill="#3D2F19"/>
<rect x="162.427" y="41.9604" width="30.2405" height="30.2522" fill="#3D2F19"/>
<rect x="222.908" y="41.9604" width="30.2405" height="30.2522" fill="#3D2F19"/>
<rect x="71.7056" y="11.7056" width="30.2388" height="30.2504" fill="#3D2F19"/>
<rect x="132.187" y="11.7056" width="30.2405" height="30.2522" fill="#3D2F19"/>
<rect x="192.668" y="11.7056" width="30.2405" height="30.2522" fill="#3D2F19"/>
<rect x="101.946" y="223.471" width="30.2405" height="30.2522" fill="#3D2F19"/>
<rect x="162.427" y="223.471" width="30.2405" height="30.2522" fill="#3D2F19"/>
<rect x="222.908" y="223.471" width="30.2405" height="30.2522" fill="#3D2F19"/>
<path d="M27.1983 259.68H25.8145L25.5515 260.469H24.7123L26.1381 256.639H26.8695L28.3032 260.469H27.464L27.1983 259.68ZM26.0276 259.041H26.9852L26.5038 257.607L26.0276 259.041Z" fill="#CD9B49"/>
<path d="M56.0153 260.469V256.639H57.357C57.8218 256.639 58.1743 256.728 58.4146 256.907C58.6548 257.084 58.775 257.345 58.775 257.689C58.775 257.876 58.7268 258.042 58.6303 258.186C58.5338 258.328 58.3997 258.432 58.2278 258.499C58.4242 258.548 58.5786 258.647 58.6908 258.796C58.8048 258.945 58.8618 259.128 58.8618 259.343C58.8618 259.712 58.7443 259.99 58.5093 260.18C58.2743 260.369 57.9393 260.466 57.5043 260.469H56.0153ZM56.8046 258.801V259.835H57.4807C57.6666 259.835 57.8113 259.791 57.9147 259.704C58.02 259.614 58.0726 259.491 58.0726 259.335C58.0726 258.985 57.8911 258.807 57.528 258.801H56.8046ZM56.8046 258.244H57.3886C57.7867 258.237 57.9858 258.078 57.9858 257.767C57.9858 257.594 57.9349 257.469 57.8332 257.394C57.7332 257.317 57.5745 257.278 57.357 257.278H56.8046V258.244Z" fill="#CD9B49"/>
<path d="M89.553 259.193C89.5232 259.605 89.3706 259.93 89.0953 260.167C88.8217 260.403 88.4604 260.522 88.0114 260.522C87.5203 260.522 87.1336 260.357 86.8513 260.027C86.5707 259.696 86.4303 259.242 86.4303 258.665V258.43C86.4303 258.062 86.4952 257.738 86.625 257.457C86.7548 257.176 86.9398 256.962 87.1801 256.813C87.4221 256.662 87.7027 256.586 88.0219 256.586C88.4639 256.586 88.8199 256.705 89.09 256.941C89.3601 257.178 89.5162 257.511 89.5583 257.938H88.7691C88.7498 257.691 88.6805 257.512 88.5612 257.402C88.4437 257.29 88.264 257.233 88.0219 257.233C87.7589 257.233 87.5616 257.328 87.43 257.518C87.3002 257.705 87.2336 257.997 87.2301 258.394V258.683C87.2301 259.097 87.2924 259.399 87.4169 259.591C87.5431 259.782 87.7413 259.877 88.0114 259.877C88.2552 259.877 88.4367 259.822 88.556 259.712C88.677 259.599 88.7463 259.427 88.7638 259.193H89.553Z" fill="#CD9B49"/>
<path d="M116.628 260.469V256.639H117.806C118.143 256.639 118.444 256.715 118.709 256.868C118.975 257.019 119.183 257.234 119.332 257.515C119.481 257.794 119.556 258.111 119.556 258.467V258.644C119.556 259 119.482 259.316 119.335 259.593C119.189 259.87 118.983 260.085 118.716 260.238C118.45 260.39 118.149 260.467 117.814 260.469H116.628ZM117.417 257.278V259.835H117.798C118.107 259.835 118.343 259.734 118.506 259.533C118.669 259.331 118.752 259.043 118.756 258.667V258.465C118.756 258.075 118.675 257.781 118.514 257.581C118.353 257.379 118.117 257.278 117.806 257.278H117.417Z" fill="#CD9B49"/>
<path d="M149.014 258.809H147.498V259.835H149.277V260.469H146.709V256.639H149.272V257.278H147.498V258.191H149.014V258.809Z" fill="#CD9B49"/>
<path d="M179.544 258.904H178.029V260.469H177.24V256.639H179.734V257.278H178.029V258.267H179.544V258.904Z" fill="#CD9B49"/>
<path d="M210.352 259.985C210.21 260.155 210.009 260.288 209.75 260.382C209.49 260.475 209.202 260.522 208.887 260.522C208.555 260.522 208.264 260.45 208.013 260.306C207.764 260.161 207.571 259.95 207.435 259.675C207.3 259.399 207.23 259.076 207.227 258.704V258.444C207.227 258.061 207.291 257.731 207.419 257.452C207.549 257.171 207.735 256.957 207.977 256.81C208.22 256.661 208.505 256.586 208.832 256.586C209.286 256.586 209.641 256.695 209.897 256.912C210.153 257.128 210.305 257.443 210.352 257.857H209.584C209.549 257.638 209.471 257.477 209.35 257.375C209.231 257.274 209.066 257.223 208.855 257.223C208.587 257.223 208.383 257.324 208.242 257.525C208.102 257.727 208.031 258.027 208.029 258.425V258.67C208.029 259.071 208.105 259.375 208.258 259.58C208.411 259.785 208.634 259.888 208.929 259.888C209.225 259.888 209.437 259.825 209.563 259.698V259.038H208.845V258.457H210.352V259.985Z" fill="#CD9B49"/>
<path d="M240.52 260.469H239.731V258.828H238.192V260.469H237.403V256.639H238.192V258.191H239.731V256.639H240.52V260.469Z" fill="#CD9B49"/>
<path d="M27.1983 7.35336H25.8145L25.5515 8.14258H24.7123L26.1381 4.31222H26.8695L28.3032 8.14258H27.464L27.1983 7.35336ZM26.0276 6.71409H26.9852L26.5038 5.28033L26.0276 6.71409Z" fill="#CD9B49"/>
<path d="M56.0153 8.14258V4.31222H57.357C57.8218 4.31222 58.1743 4.40167 58.4146 4.58056C58.6548 4.75769 58.775 5.01814 58.775 5.36189C58.775 5.54955 58.7268 5.71528 58.6303 5.8591C58.5338 6.00116 58.3997 6.10551 58.2278 6.17215C58.4242 6.22126 58.5786 6.32035 58.6908 6.46943C58.8048 6.6185 58.8618 6.8009 58.8618 7.01662C58.8618 7.38493 58.7443 7.66378 58.5093 7.8532C58.2743 8.04261 57.9393 8.13907 57.5043 8.14258H56.0153ZM56.8046 6.47469V7.50857H57.4807C57.6666 7.50857 57.8113 7.46472 57.9147 7.37703C58.02 7.28759 58.0726 7.16482 58.0726 7.00873C58.0726 6.65796 57.8911 6.47995 57.528 6.47469H56.8046ZM56.8046 5.91697H57.3886C57.7867 5.90996 57.9858 5.75124 57.9858 5.44081C57.9858 5.26718 57.9349 5.14266 57.8332 5.06724C57.7332 4.99008 57.5745 4.95149 57.357 4.95149H56.8046V5.91697Z" fill="#CD9B49"/>
<path d="M89.553 6.86667C89.5232 7.27882 89.3706 7.60328 89.0953 7.84004C88.8217 8.07681 88.4604 8.19519 88.0114 8.19519C87.5203 8.19519 87.1336 8.03033 86.8513 7.70061C86.5707 7.36914 86.4303 6.9149 86.4303 6.33789V6.10375C86.4303 5.73545 86.4952 5.41099 86.625 5.13038C86.7548 4.84977 86.9398 4.63493 87.1801 4.48585C87.4221 4.33502 87.7027 4.25961 88.0219 4.25961C88.4639 4.25961 88.8199 4.37799 89.09 4.61476C89.3601 4.85152 89.5162 5.18387 89.5583 5.61181H88.7691C88.7498 5.36452 88.6805 5.18563 88.5612 5.07514C88.4437 4.96289 88.264 4.90677 88.0219 4.90677C87.7589 4.90677 87.5616 5.00147 87.43 5.19089C87.3002 5.37855 87.2336 5.67056 87.2301 6.06692V6.35631C87.2301 6.77021 87.2924 7.07274 87.4169 7.26391C87.5431 7.45508 87.7413 7.55066 88.0114 7.55066C88.2552 7.55066 88.4367 7.49542 88.556 7.38493C88.677 7.27268 88.7463 7.09993 88.7638 6.86667H89.553Z" fill="#CD9B49"/>
<path d="M116.628 8.14258V4.31222H117.806C118.143 4.31222 118.444 4.38851 118.709 4.5411C118.975 4.69192 119.183 4.90765 119.332 5.18826C119.481 5.46712 119.556 5.78456 119.556 6.14059V6.31684C119.556 6.67287 119.482 6.98944 119.335 7.26654C119.189 7.54365 118.983 7.75849 118.716 7.91107C118.45 8.06366 118.149 8.14082 117.814 8.14258H116.628ZM117.417 4.95149V7.50857H117.798C118.107 7.50857 118.343 7.40772 118.506 7.20603C118.669 7.00434 118.752 6.71584 118.756 6.34052V6.13795C118.756 5.7486 118.675 5.45396 118.514 5.25403C118.353 5.05234 118.117 4.95149 117.806 4.95149H117.417Z" fill="#CD9B49"/>
<path d="M149.014 6.48258H147.498V7.50857H149.277V8.14258H146.709V4.31222H149.272V4.95149H147.498V5.86436H149.014V6.48258Z" fill="#CD9B49"/>
<path d="M179.544 6.57729H178.029V8.14258H177.24V4.31222H179.734V4.95149H178.029V5.94065H179.544V6.57729Z" fill="#CD9B49"/>
<path d="M210.352 7.65852C210.21 7.82864 210.009 7.96106 209.75 8.05576C209.49 8.14872 209.202 8.19519 208.887 8.19519C208.555 8.19519 208.264 8.12329 208.013 7.97947C207.764 7.8339 207.571 7.62345 207.435 7.34809C207.3 7.07274 207.23 6.74916 207.227 6.37735V6.11691C207.227 5.73457 207.291 5.40398 207.419 5.12512C207.549 4.84451 207.735 4.63054 207.977 4.48322C208.22 4.33414 208.505 4.25961 208.832 4.25961C209.286 4.25961 209.641 4.36834 209.897 4.58582C210.153 4.80154 210.305 5.11635 210.352 5.53025H209.584C209.549 5.31103 209.471 5.15055 209.35 5.04883C209.231 4.94711 209.066 4.89625 208.855 4.89625C208.587 4.89625 208.383 4.99709 208.242 5.19878C208.102 5.40047 208.031 5.70037 208.029 6.09849V6.34315C208.029 6.74478 208.105 7.04819 208.258 7.25339C208.411 7.45859 208.634 7.56118 208.929 7.56118C209.225 7.56118 209.437 7.49805 209.563 7.37177V6.71146H208.845V6.13006H210.352V7.65852Z" fill="#CD9B49"/>
<path d="M240.52 8.14258H239.731V6.501H238.192V8.14258H237.403V4.31222H238.192V5.86436H239.731V4.31222H240.52V8.14258Z" fill="#CD9B49"/>
<path d="M6.59697 241.163H5.83668V238.232L4.92908 238.514V237.896L6.51542 237.327H6.59697V241.163Z" fill="#CD9B49"/>
<path d="M7.37567 210.633H4.75019V210.112L5.98927 208.791C6.15939 208.605 6.28479 208.443 6.36546 208.305C6.44789 208.166 6.48911 208.035 6.48911 207.91C6.48911 207.74 6.44614 207.607 6.3602 207.51C6.27426 207.412 6.1515 207.363 5.9919 207.363C5.82002 207.363 5.6841 207.422 5.58413 207.542C5.48592 207.659 5.43681 207.814 5.43681 208.007H4.6739C4.6739 207.774 4.72914 207.561 4.83963 207.368C4.95188 207.175 5.10972 207.024 5.31317 206.916C5.51661 206.805 5.74724 206.75 6.00505 206.75C6.39966 206.75 6.70571 206.845 6.92318 207.034C7.14241 207.223 7.25202 207.491 7.25202 207.836C7.25202 208.026 7.20292 208.219 7.1047 208.415C7.00649 208.612 6.83812 208.84 6.5996 209.102L5.72882 210.02H7.37567V210.633Z" fill="#CD9B49"/>
<path d="M5.52363 178.299H5.92876C6.12168 178.299 6.26462 178.251 6.35757 178.154C6.45052 178.058 6.497 177.93 6.497 177.77C6.497 177.616 6.45052 177.496 6.35757 177.41C6.26637 177.324 6.1401 177.281 5.97874 177.281C5.83318 177.281 5.71129 177.321 5.61307 177.402C5.51486 177.481 5.46575 177.584 5.46575 177.712H4.70547C4.70547 177.512 4.75896 177.333 4.86594 177.176C4.97468 177.016 5.12551 176.891 5.31843 176.802C5.5131 176.713 5.72707 176.668 5.96033 176.668C6.36546 176.668 6.68291 176.765 6.91266 176.96C7.14241 177.153 7.25728 177.419 7.25728 177.76C7.25728 177.935 7.20379 178.096 7.09681 178.244C6.98983 178.391 6.84952 178.504 6.67589 178.583C6.89161 178.66 7.05209 178.776 7.15732 178.93C7.2643 179.085 7.31779 179.267 7.31779 179.477C7.31779 179.818 7.19327 180.09 6.94423 180.296C6.69694 180.501 6.36897 180.603 5.96033 180.603C5.578 180.603 5.26494 180.503 5.02116 180.301C4.77913 180.099 4.65811 179.833 4.65811 179.501H5.4184C5.4184 179.645 5.47189 179.762 5.57887 179.854C5.68761 179.945 5.8209 179.99 5.97874 179.99C6.15939 179.99 6.30057 179.943 6.40229 179.848C6.50577 179.752 6.55751 179.625 6.55751 179.467C6.55751 179.085 6.34705 178.893 5.92613 178.893H5.52363V178.299Z" fill="#CD9B49"/>
<path d="M6.99947 149.028H7.43354V149.641H6.99947V150.469H6.23919V149.641H4.66864L4.63444 149.162L6.2313 146.639H6.99947V149.028ZM5.39209 149.028H6.23919V147.675L6.1892 147.762L5.39209 149.028Z" fill="#CD9B49"/>
<path d="M4.86331 118.055L5.08429 116.109H7.23098V116.743H5.70778L5.61307 117.566C5.79372 117.47 5.98576 117.421 6.1892 117.421C6.554 117.421 6.83987 117.534 7.04683 117.761C7.25378 117.987 7.35725 118.304 7.35725 118.71C7.35725 118.958 7.30464 119.18 7.19941 119.376C7.09593 119.571 6.94686 119.722 6.75218 119.831C6.55751 119.938 6.32776 119.992 6.06293 119.992C5.83142 119.992 5.61658 119.945 5.4184 119.852C5.22021 119.757 5.06325 119.625 4.94749 119.455C4.8335 119.285 4.77299 119.091 4.76597 118.874H5.51837C5.53415 119.033 5.5894 119.158 5.6841 119.247C5.78056 119.335 5.90596 119.379 6.0603 119.379C6.23217 119.379 6.36459 119.317 6.45754 119.194C6.55049 119.07 6.59697 118.895 6.59697 118.668C6.59697 118.451 6.54348 118.284 6.43649 118.168C6.32951 118.053 6.1778 117.995 5.98138 117.995C5.80073 117.995 5.65429 118.042 5.54204 118.137L5.46838 118.205L4.86331 118.055Z" fill="#CD9B49"/>
<path d="M6.81269 85.9871V86.6132H6.73903C6.39528 86.6185 6.11817 86.7079 5.90771 86.8816C5.69901 87.0552 5.57361 87.2963 5.53152 87.605C5.73496 87.3981 5.9919 87.2946 6.30233 87.2946C6.63555 87.2946 6.90038 87.4139 7.09681 87.6524C7.29324 87.8909 7.39145 88.2048 7.39145 88.5942C7.39145 88.8432 7.33708 89.0686 7.22835 89.2703C7.12136 89.472 6.96878 89.6289 6.7706 89.7412C6.57417 89.8534 6.35143 89.9095 6.10239 89.9095C5.69901 89.9095 5.3728 89.7692 5.12375 89.4886C4.87646 89.208 4.75282 88.8336 4.75282 88.3653V88.0917C4.75282 87.6761 4.83087 87.3095 4.98696 86.9921C5.1448 86.6729 5.37017 86.4264 5.66306 86.2528C5.9577 86.0774 6.29882 85.9889 6.68641 85.9871H6.81269ZM6.07082 87.9049C5.94805 87.9049 5.83668 87.9374 5.73672 88.0023C5.63675 88.0654 5.56309 88.1496 5.51573 88.2548V88.4863C5.51573 88.7406 5.56572 88.9397 5.66569 89.0835C5.76565 89.2256 5.90596 89.2966 6.08661 89.2966C6.24971 89.2966 6.38125 89.2326 6.48122 89.1045C6.58294 88.9748 6.6338 88.8073 6.6338 88.6021C6.6338 88.3934 6.58294 88.225 6.48122 88.097C6.37949 87.9689 6.2427 87.9049 6.07082 87.9049Z" fill="#CD9B49"/>
<path d="M7.35462 55.9225L5.87352 59.3267H5.07114L6.55488 56.1119H4.65022V55.4963H7.35462V55.9225Z" fill="#CD9B49"/>
<path d="M7.24676 25.5349C7.24676 25.7208 7.20028 25.8857 7.10733 26.0295C7.01438 26.1733 6.88635 26.2882 6.72324 26.3741C6.90915 26.4636 7.05647 26.5872 7.16521 26.745C7.27395 26.9011 7.32831 27.0853 7.32831 27.2975C7.32831 27.6377 7.21256 27.907 6.98106 28.1051C6.74955 28.3016 6.43474 28.3998 6.03662 28.3998C5.6385 28.3998 5.32281 28.3007 5.08955 28.1025C4.8563 27.9043 4.73967 27.636 4.73967 27.2975C4.73967 27.0853 4.79403 26.9003 4.90277 26.7424C5.01151 26.5846 5.15795 26.4618 5.34211 26.3741C5.179 26.2882 5.05097 26.1733 4.95802 26.0295C4.86682 25.8857 4.82122 25.7208 4.82122 25.5349C4.82122 25.2087 4.92996 24.9491 5.14743 24.7562C5.36491 24.5615 5.66043 24.4642 6.03399 24.4642C6.4058 24.4642 6.70044 24.5607 6.91792 24.7536C7.13715 24.9447 7.24676 25.2052 7.24676 25.5349ZM6.5654 27.2423C6.5654 27.0756 6.51717 26.9424 6.42071 26.8424C6.32425 26.7424 6.19447 26.6924 6.03136 26.6924C5.87001 26.6924 5.7411 26.7424 5.64464 26.8424C5.54818 26.9406 5.49995 27.0739 5.49995 27.2423C5.49995 27.4054 5.5473 27.5369 5.64201 27.6369C5.73672 27.7368 5.86825 27.7868 6.03662 27.7868C6.20148 27.7868 6.33039 27.7386 6.42334 27.6421C6.51805 27.5457 6.5654 27.4124 6.5654 27.2423ZM6.48648 25.5717C6.48648 25.4227 6.44702 25.3034 6.36809 25.214C6.28917 25.1228 6.1778 25.0772 6.03399 25.0772C5.89193 25.0772 5.78144 25.121 5.70252 25.2087C5.62359 25.2964 5.58413 25.4174 5.58413 25.5717C5.58413 25.7243 5.62359 25.8471 5.70252 25.94C5.78144 26.033 5.89281 26.0795 6.03662 26.0795C6.18043 26.0795 6.29093 26.033 6.36809 25.94C6.44702 25.8471 6.48648 25.7243 6.48648 25.5717Z" fill="#CD9B49"/>
<path d="M29.6683 206.255C29.6683 206.186 29.6348 206.122 29.5784 206.082L28.3573 205.22C28.8448 204.684 29.1422 203.971 29.1422 203.19C29.1422 201.523 27.7908 200.171 26.1239 200.171C24.4569 200.171 23.1055 201.523 23.1055 203.19C23.1055 204.008 23.4316 204.751 23.9604 205.294L22.8447 206.082C22.7883 206.122 22.7548 206.186 22.7548 206.255V208.1C22.7548 208.217 22.8499 208.312 22.9673 208.312H24.121C23.9892 209.022 23.5141 209.747 22.8835 210.411C22.147 211.185 21.258 211.812 20.6704 212.147L20.6704 212.147L20.5821 212.198C20.5159 212.236 20.475 212.306 20.475 212.382V215.115C20.475 215.232 20.5702 215.327 20.6875 215.327H31.7356C31.8529 215.327 31.9481 215.232 31.9481 215.115V212.382C31.9481 212.306 31.9072 212.236 31.841 212.198L31.7527 212.147C31.1651 211.812 30.2761 211.185 29.5396 210.411C28.909 209.747 28.4339 209.022 28.3021 208.312H29.4558C29.5732 208.312 29.6683 208.217 29.6683 208.1V206.255Z" fill="#3A3A3A" stroke="#8C8989" stroke-width="0.424927" stroke-linejoin="round"/>
<path d="M59.4618 206.255C59.4618 206.186 59.4282 206.122 59.3718 206.082L58.1508 205.22C58.6382 204.684 58.9357 203.971 58.9357 203.19C58.9357 201.523 57.5843 200.171 55.9173 200.171C54.2503 200.171 52.899 201.523 52.899 203.19C52.899 204.008 53.225 204.751 53.7538 205.294L52.6382 206.082C52.5818 206.122 52.5483 206.186 52.5483 206.255V208.1C52.5483 208.217 52.6434 208.312 52.7607 208.312H53.9144C53.7826 209.022 53.3076 209.747 52.677 210.411C51.9405 211.185 51.0515 211.812 50.4639 212.147L50.4639 212.147L50.3755 212.198C50.3093 212.236 50.2685 212.306 50.2685 212.382V215.115C50.2685 215.232 50.3636 215.327 50.481 215.327H61.5291C61.6464 215.327 61.7415 215.232 61.7415 215.115V212.382C61.7415 212.306 61.7007 212.236 61.6345 212.198L61.5461 212.147C60.9586 211.812 60.0695 211.185 59.333 210.411C58.7024 209.747 58.2274 209.022 58.0956 208.312H59.2493C59.3666 208.312 59.4618 208.217 59.4618 208.1V206.255Z" fill="#3A3A3A" stroke="#BFBFBF" stroke-width="0.424927" stroke-linejoin="round"/>
<path d="M90.1527 206.255C90.1527 206.186 90.1191 206.122 90.0627 206.082L88.8417 205.22C89.3291 204.684 89.6266 203.971 89.6266 203.19C89.6266 201.523 88.2752 200.171 86.6082 200.171C84.9413 200.171 83.5899 201.523 83.5899 203.19C83.5899 204.008 83.916 204.751 84.4447 205.294L83.3291 206.082C83.2727 206.122 83.2392 206.186 83.2392 206.255V208.1C83.2392 208.217 83.3343 208.312 83.4516 208.312H84.6054C84.4736 209.022 83.9985 209.747 83.3679 210.411C82.6314 211.185 81.7424 211.812 81.1548 212.147L81.1548 212.147L81.0665 212.198C81.0003 212.236 80.9594 212.306 80.9594 212.382V215.115C80.9594 215.232 81.0545 215.327 81.1719 215.327H92.22C92.3373 215.327 92.4324 215.232 92.4324 215.115V212.382C92.4324 212.306 92.3916 212.236 92.3254 212.198L92.237 212.147C91.6495 211.812 90.7605 211.185 90.0239 210.411C89.3933 209.747 88.9183 209.022 88.7865 208.312H89.9402C90.0576 208.312 90.1527 208.217 90.1527 208.1V206.255Z" fill="#3A3A3A" stroke="#8C8989" stroke-width="0.424927" stroke-linejoin="round"/>
<path d="M120.394 206.255C120.394 206.186 120.361 206.122 120.304 206.082L119.083 205.22C119.571 204.684 119.868 203.971 119.868 203.19C119.868 201.523 118.517 200.171 116.85 200.171C115.183 200.171 113.832 201.523 113.832 203.19C113.832 204.008 114.158 204.751 114.686 205.294L113.571 206.082C113.514 206.122 113.481 206.186 113.481 206.255V208.1C113.481 208.217 113.576 208.312 113.693 208.312H114.847C114.715 209.022 114.24 209.747 113.61 210.411C112.873 211.185 111.984 211.812 111.397 212.147L111.397 212.147L111.308 212.198C111.242 212.236 111.201 212.306 111.201 212.382V215.115C111.201 215.232 111.296 215.327 111.414 215.327H122.462C122.579 215.327 122.674 215.232 122.674 215.115V212.382C122.674 212.306 122.633 212.236 122.567 212.198L122.479 212.147C121.891 211.812 121.002 211.185 120.266 210.411C119.635 209.747 119.16 209.022 119.028 208.312H120.182C120.299 208.312 120.394 208.217 120.394 208.1V206.255Z" fill="#3A3A3A" stroke="#8C8989" stroke-width="0.424927" stroke-linejoin="round"/>
<path d="M150.187 206.255C150.187 206.186 150.154 206.122 150.097 206.082L148.876 205.22C149.364 204.684 149.661 203.971 149.661 203.19C149.661 201.523 148.31 200.171 146.643 200.171C144.976 200.171 143.625 201.523 143.625 203.19C143.625 204.008 143.951 204.751 144.479 205.294L143.364 206.082C143.307 206.122 143.274 206.186 143.274 206.255V208.1C143.274 208.217 143.369 208.312 143.486 208.312H144.64C144.508 209.022 144.033 209.747 143.403 210.411C142.666 211.185 141.777 211.812 141.189 212.147L141.189 212.147L141.101 212.198C141.035 212.236 140.994 212.306 140.994 212.382V215.115C140.994 215.232 141.089 215.327 141.207 215.327H152.255C152.372 215.327 152.467 215.232 152.467 215.115V212.382C152.467 212.306 152.426 212.236 152.36 212.198L152.272 212.147C151.684 211.812 150.795 211.185 150.059 210.411C149.428 209.747 148.953 209.022 148.821 208.312H149.975C150.092 208.312 150.187 208.217 150.187 208.1V206.255Z" fill="#3A3A3A" stroke="#8C8989" stroke-width="0.424927" stroke-linejoin="round"/>
<path d="M180.43 206.255C180.43 206.186 180.396 206.122 180.34 206.082L179.119 205.22C179.606 204.684 179.903 203.971 179.903 203.19C179.903 201.523 178.552 200.171 176.885 200.171C175.218 200.171 173.867 201.523 173.867 203.19C173.867 204.008 174.193 204.751 174.722 205.294L173.606 206.082C173.55 206.122 173.516 206.186 173.516 206.255V208.1C173.516 208.217 173.611 208.312 173.728 208.312H174.882C174.75 209.022 174.275 209.747 173.645 210.411C172.908 211.185 172.019 211.812 171.432 212.147L171.432 212.147L171.343 212.198C171.277 212.236 171.236 212.306 171.236 212.382V215.115C171.236 215.232 171.331 215.327 171.449 215.327H182.497C182.614 215.327 182.709 215.232 182.709 215.115V212.382C182.709 212.306 182.668 212.236 182.602 212.198L182.514 212.147C181.926 211.812 181.037 211.185 180.301 210.411C179.67 209.747 179.195 209.022 179.063 208.312H180.217C180.334 208.312 180.43 208.217 180.43 208.1V206.255Z" fill="#3A3A3A" stroke="#8C8989" stroke-width="0.424927" stroke-linejoin="round"/>
<path d="M212.018 206.255C212.018 206.186 211.985 206.122 211.928 206.082L210.707 205.22C211.195 204.684 211.492 203.971 211.492 203.19C211.492 201.523 210.141 200.171 208.474 200.171C206.807 200.171 205.456 201.523 205.456 203.19C205.456 204.008 205.782 204.751 206.31 205.294L205.195 206.082C205.138 206.122 205.105 206.186 205.105 206.255V208.1C205.105 208.217 205.2 208.312 205.317 208.312H206.471C206.339 209.022 205.864 209.747 205.234 210.411C204.497 211.185 203.608 211.812 203.021 212.147L203.021 212.147L202.932 212.198C202.866 212.236 202.825 212.306 202.825 212.382V215.115C202.825 215.232 202.92 215.327 203.038 215.327H214.086C214.203 215.327 214.298 215.232 214.298 215.115V212.382C214.298 212.306 214.257 212.236 214.191 212.198L214.103 212.147C213.515 211.812 212.626 211.185 211.89 210.411C211.259 209.747 210.784 209.022 210.652 208.312H211.806C211.923 208.312 212.018 208.217 212.018 208.1V206.255Z" fill="#3A3A3A" stroke="#8C8989" stroke-width="0.424927" stroke-linejoin="round"/>
<path d="M241.146 206.255C241.146 206.186 241.112 206.122 241.056 206.082L239.835 205.22C240.322 204.684 240.62 203.971 240.62 203.19C240.62 201.523 239.268 200.171 237.601 200.171C235.934 200.171 234.583 201.523 234.583 203.19C234.583 204.008 234.909 204.751 235.438 205.294L234.322 206.082C234.266 206.122 234.232 206.186 234.232 206.255V208.1C234.232 208.217 234.327 208.312 234.445 208.312H235.599C235.467 209.022 234.992 209.747 234.361 210.411C233.625 211.185 232.736 211.812 232.148 212.147L232.148 212.147L232.06 212.198C231.993 212.236 231.953 212.306 231.953 212.382V215.115C231.953 215.232 232.048 215.327 232.165 215.327H243.213C243.33 215.327 243.426 215.232 243.426 215.115V212.382C243.426 212.306 243.385 212.236 243.319 212.198L243.23 212.147C242.643 211.812 241.754 211.185 241.017 210.411C240.387 209.747 239.911 209.022 239.78 208.312H240.933C241.051 208.312 241.146 208.217 241.146 208.1V206.255Z" fill="#3A3A3A" stroke="#8C8989" stroke-width="0.424927" stroke-linejoin="round"/>
<path d="M20.6875 230.74C20.5881 230.74 20.5075 230.821 20.5075 230.92V233.469C20.5075 233.526 20.5342 233.579 20.5795 233.613L22.7635 235.252L22.2083 240.248C22.2027 240.299 22.2189 240.35 22.2531 240.388C22.2872 240.427 22.336 240.448 22.3872 240.448H30.0359C30.0871 240.448 30.1359 240.427 30.17 240.388C30.2042 240.35 30.2205 240.299 30.2148 240.248L29.6596 235.252L31.8436 233.613C31.8889 233.579 31.9156 233.526 31.9156 233.469V230.92C31.9156 230.821 31.835 230.74 31.7356 230.74H28.9028C28.8033 230.74 28.7228 230.821 28.7228 230.92V232.44H27.9496V230.92C27.9496 230.821 27.869 230.74 27.7696 230.74H24.6535C24.5541 230.74 24.4735 230.821 24.4735 230.92V232.44H23.7004V230.92C23.7004 230.821 23.6198 230.74 23.5203 230.74H20.6875ZM22.3872 241.221C22.3306 241.221 22.2772 241.248 22.2432 241.293L20.5435 243.56C20.5201 243.591 20.5075 243.629 20.5075 243.668V245.934C20.5075 246.033 20.5881 246.114 20.6875 246.114H31.7356C31.835 246.114 31.9156 246.033 31.9156 245.934V243.668C31.9156 243.629 31.903 243.591 31.8796 243.56L30.1799 241.293C30.1459 241.248 30.0926 241.221 30.0359 241.221H22.3872Z" fill="#3A3A3A" stroke="#BFBFBF" stroke-width="0.360008" stroke-linejoin="round"/>
<path d="M232.382 228.944C232.282 228.944 232.202 229.025 232.202 229.124V231.674C232.202 231.73 232.229 231.784 232.274 231.818L234.458 233.456L233.903 238.453C233.897 238.503 233.913 238.554 233.947 238.592C233.982 238.631 234.03 238.652 234.082 238.652H241.73C241.781 238.652 241.83 238.631 241.864 238.592C241.899 238.554 241.915 238.503 241.909 238.453L241.354 233.456L243.538 231.818C243.583 231.784 243.61 231.73 243.61 231.674V229.124C243.61 229.025 243.529 228.944 243.43 228.944H240.597C240.498 228.944 240.417 229.025 240.417 229.124V230.644H239.644V229.124C239.644 229.025 239.563 228.944 239.464 228.944H236.348C236.248 228.944 236.168 229.025 236.168 229.124V230.644H235.395V229.124C235.395 229.025 235.314 228.944 235.215 228.944H232.382ZM234.082 239.426C234.025 239.426 233.972 239.452 233.938 239.498L232.238 241.764C232.214 241.795 232.202 241.833 232.202 241.872V244.138C232.202 244.238 232.282 244.318 232.382 244.318H243.43C243.529 244.318 243.61 244.238 243.61 244.138V241.872C243.61 241.833 243.597 241.795 243.574 241.764L241.874 239.498C241.84 239.452 241.787 239.426 241.73 239.426H234.082Z" fill="#3A3A3A" stroke="#BFBFBF" stroke-width="0.360008" stroke-linejoin="round"/>
<path d="M84.9415 232.638C84.3803 233.071 83.6575 233.769 83.05 234.662C82.3722 235.657 81.829 236.906 81.829 238.305C81.829 240.571 83.2432 241.764 84.4103 242.278L81.1056 242.863C81.0041 242.881 80.9301 242.969 80.9301 243.072V245.197C80.9301 245.314 81.0252 245.409 81.1426 245.409L91.9295 245.409C91.9859 245.409 92.0399 245.387 92.0798 245.347C92.1196 245.307 92.142 245.253 92.142 245.197V243.072C92.142 242.969 92.0679 242.881 91.9662 242.863L88.5463 242.263C89.706 241.741 91.0933 240.549 91.0933 238.305C91.0933 236.491 90.2489 234.884 89.2347 233.725C89.1605 233.64 89.0329 233.628 88.9441 233.698C88.3636 234.151 87.8498 234.891 87.4818 235.694C87.1468 236.424 86.923 237.227 86.885 237.943H86.1733C86.2149 235.975 86.8371 234.042 88.1423 232.621C88.1476 232.615 88.1525 232.609 88.1571 232.603C88.4017 232.27 88.5463 231.858 88.5463 231.414C88.5463 230.303 87.6463 229.403 86.5361 229.403C85.4258 229.403 84.5258 230.303 84.5258 231.414C84.5258 231.874 84.6809 232.299 84.9415 232.638Z" fill="#3A3A3A" stroke="#BFBFBF" stroke-width="0.424927" stroke-linejoin="round"/>
<path d="M175.082 231.13C174.521 231.563 173.798 232.262 173.191 233.154C172.513 234.149 171.97 235.399 171.97 236.798C171.97 239.063 173.384 240.257 174.551 240.771L171.246 241.355C171.145 241.373 171.071 241.461 171.071 241.564V243.689C171.071 243.806 171.166 243.902 171.283 243.902L182.07 243.902C182.126 243.902 182.18 243.879 182.22 243.839C182.26 243.799 182.282 243.745 182.282 243.689V241.564C182.282 241.461 182.208 241.373 182.107 241.355L178.687 240.755C179.846 240.234 181.234 239.041 181.234 236.798C181.234 234.983 180.389 233.377 179.375 232.218C179.301 232.133 179.173 232.121 179.084 232.19C178.504 232.643 177.99 233.384 177.622 234.186C177.287 234.917 177.063 235.719 177.025 236.435H176.314C176.355 234.467 176.978 232.535 178.283 231.113C178.288 231.107 178.293 231.102 178.297 231.095C178.542 230.762 178.687 230.351 178.687 229.906C178.687 228.796 177.787 227.896 176.677 227.896C175.566 227.896 174.666 228.796 174.666 229.906C174.666 230.367 174.821 230.791 175.082 231.13Z" fill="#3A3A3A" stroke="#BFBFBF" stroke-width="0.424927" stroke-linejoin="round"/>
<path d="M116.537 228.393C116.422 228.393 116.328 228.484 116.325 228.599L116.287 229.809H114.837C114.72 229.809 114.625 229.905 114.625 230.022V231.722C114.625 231.839 114.72 231.934 114.837 231.934H116.218L116.17 233.139C115.422 232.418 114.526 231.866 113.605 231.632C112.571 231.37 111.501 231.51 110.594 232.267C108.772 233.785 108.812 237.202 111.237 239.154C111.902 239.689 112.511 240.199 112.95 240.756C113.346 241.26 113.593 241.791 113.613 242.404L111.415 242.701C111.31 242.715 111.231 242.805 111.231 242.911V245.036C111.231 245.153 111.326 245.248 111.444 245.248H123.33C123.447 245.248 123.542 245.153 123.542 245.036V242.911C123.542 242.805 123.464 242.715 123.358 242.701L121.161 242.404C121.18 241.791 121.428 241.26 121.824 240.756C122.262 240.199 122.872 239.689 123.537 239.154C125.961 237.202 126.002 233.785 124.18 232.267C123.272 231.51 122.202 231.37 121.169 231.632C120.247 231.866 119.352 232.418 118.604 233.139L118.555 231.934H119.936C120.054 231.934 120.149 231.839 120.149 231.722V230.022C120.149 229.905 120.054 229.809 119.936 229.809H118.487L118.449 228.599C118.445 228.484 118.351 228.393 118.237 228.393H116.537ZM114.755 235.224C115.674 236.731 115.869 238.479 115.896 239.421C115.805 239.398 115.694 239.362 115.563 239.313C115.301 239.215 114.985 239.068 114.651 238.876C113.981 238.492 113.257 237.94 112.761 237.263C112.409 236.783 112.187 236.185 112.129 235.643C112.07 235.089 112.184 234.649 112.431 234.423C112.677 234.197 113.089 234.135 113.547 234.274C113.999 234.412 114.458 234.738 114.755 235.224ZM118.878 239.421C118.905 238.479 119.099 236.731 120.019 235.224C120.316 234.738 120.774 234.412 121.227 234.274C121.685 234.135 122.096 234.197 122.342 234.423C122.589 234.649 122.704 235.089 122.645 235.643C122.587 236.185 122.364 236.783 122.013 237.263C121.517 237.94 120.793 238.492 120.123 238.876C119.789 239.068 119.473 239.215 119.211 239.313C119.08 239.362 118.968 239.398 118.878 239.421Z" fill="#3A3A3A" stroke="#BFBFBF" stroke-width="0.424927" stroke-linejoin="round"/>
<path d="M141.758 240.048L143.236 242.466L141.902 242.702C141.8 242.72 141.727 242.808 141.727 242.911V245.036C141.727 245.153 141.822 245.248 141.939 245.248L152.726 245.248C152.782 245.248 152.836 245.226 152.876 245.186C152.916 245.146 152.938 245.092 152.938 245.036V242.911C152.938 242.808 152.864 242.72 152.762 242.702L151.408 242.464L152.885 240.048C152.895 240.032 152.902 240.014 152.908 239.996L154.439 234.748C154.52 234.76 154.602 234.767 154.687 234.767C155.586 234.767 156.316 234.038 156.316 233.138C156.316 232.238 155.586 231.509 154.687 231.509C153.787 231.509 153.058 232.238 153.058 233.138C153.058 233.525 153.193 233.88 153.418 234.159L150.84 236.399L150.281 231.882C150.982 231.7 151.5 231.063 151.5 230.305C151.5 229.405 150.771 228.676 149.871 228.676C148.971 228.676 148.242 229.405 148.242 230.305C148.242 230.92 148.582 231.454 149.084 231.732L147.321 235.728L145.558 231.732C146.06 231.454 146.401 230.92 146.401 230.305C146.401 229.405 145.671 228.676 144.772 228.676C143.872 228.676 143.143 229.405 143.143 230.305C143.143 231.063 143.66 231.7 144.361 231.882L143.803 236.399L141.225 234.159C141.45 233.88 141.585 233.525 141.585 233.138C141.585 232.238 140.856 231.509 139.956 231.509C139.056 231.509 138.327 232.238 138.327 233.138C138.327 234.038 139.056 234.767 139.956 234.767C140.04 234.767 140.123 234.76 140.204 234.748L141.735 239.996C141.74 240.014 141.748 240.032 141.758 240.048Z" fill="#3A3A3A" stroke="#BFBFBF" stroke-width="0.424927" stroke-linejoin="round"/>
<path d="M53.8361 230.958C53.7744 231.398 53.7884 231.872 53.9551 232.306C53.799 232.332 53.6491 232.369 53.518 232.422C52.2618 232.926 50.9257 234.214 50.2748 236.817C50.1043 237.499 49.8052 237.819 49.4146 238.235C49.0371 238.637 48.5904 239.112 48.1634 240.037C47.6909 241.061 48.0955 242.088 48.8453 242.622C49.6042 243.162 50.7115 243.198 51.6227 242.287C52.5362 241.373 53.3307 240.998 54.0153 240.674L54.0315 240.667C54.5162 240.438 54.9732 240.222 55.3542 239.844C55.5495 239.65 55.7213 239.417 55.8704 239.125C55.7553 239.915 55.3252 240.878 54.1931 241.562C53.2122 242.155 52.6264 243.072 52.2913 243.919C51.9575 244.762 51.8637 245.56 51.8849 245.945C51.8911 246.058 51.9843 246.146 52.0971 246.146H62.6622C62.7795 246.146 62.8747 246.051 62.8747 245.934C62.8747 242.6 62.6548 239.465 61.8304 237.047C61.0111 234.643 59.5814 232.915 57.158 232.43L54.647 229.501C54.6012 229.448 54.5319 229.421 54.462 229.429C54.392 229.436 54.3305 229.478 54.2977 229.541C54.1031 229.91 53.9116 230.42 53.8361 230.958Z" fill="#3A3A3A" stroke="#BFBFBF" stroke-width="0.424927" stroke-linejoin="round"/>
<circle cx="53.8801" cy="236.019" r="0.849854" fill="#BFBFBF"/>
<path d="M205.046 229.162C204.984 229.602 204.998 230.076 205.165 230.51C205.009 230.536 204.859 230.574 204.728 230.626C203.472 231.13 202.136 232.418 201.485 235.021C201.314 235.703 201.015 236.023 200.625 236.439C200.247 236.841 199.8 237.316 199.373 238.241C198.901 239.265 199.305 240.292 200.055 240.826C200.814 241.367 201.921 241.402 202.833 240.491C203.746 239.577 204.541 239.202 205.225 238.878L205.241 238.871C205.726 238.642 206.183 238.426 206.564 238.048C206.759 237.854 206.931 237.621 207.08 237.33C206.965 238.119 206.535 239.082 205.403 239.766C204.422 240.359 203.836 241.276 203.501 242.123C203.167 242.967 203.074 243.764 203.095 244.149C203.101 244.262 203.194 244.35 203.307 244.35H213.872C213.99 244.35 214.085 244.255 214.085 244.138C214.085 240.804 213.865 237.669 213.04 235.251C212.221 232.847 210.791 231.119 208.368 230.634L205.857 227.705C205.811 227.652 205.742 227.625 205.672 227.633C205.602 227.64 205.54 227.682 205.508 227.745C205.313 228.114 205.122 228.624 205.046 229.162Z" fill="#3A3A3A" stroke="#BFBFBF" stroke-width="0.424927" stroke-linejoin="round"/>
<circle cx="205.09" cy="234.223" r="0.849854" fill="#BFBFBF"/>
<path d="M211.241 54.6284C211.241 54.5594 211.208 54.4947 211.151 54.4549L209.93 53.593C210.418 53.057 210.715 52.3445 210.715 51.5627C210.715 49.8957 209.364 48.5444 207.697 48.5444C206.03 48.5444 204.678 49.8957 204.678 51.5627C204.678 52.3813 205.004 53.1238 205.533 53.6674L204.417 54.4549C204.361 54.4947 204.328 54.5594 204.328 54.6284V56.473C204.328 56.5903 204.423 56.6854 204.54 56.6854H205.694C205.562 57.3952 205.087 58.1205 204.456 58.7836C203.72 59.558 202.831 60.1847 202.243 60.5204L202.243 60.5204L202.155 60.5709C202.089 60.6087 202.048 60.6791 202.048 60.7554V63.4876C202.048 63.605 202.143 63.7001 202.26 63.7001H213.308C213.426 63.7001 213.521 63.605 213.521 63.4876V60.7554C213.521 60.6791 213.48 60.6087 213.414 60.5709L213.325 60.5204C212.738 60.1847 211.849 59.558 211.112 58.7836C210.482 58.1205 210.007 57.3952 209.875 56.6854H211.029C211.146 56.6854 211.241 56.5903 211.241 56.473V54.6284Z" fill="url(#paint33_linear)" stroke="url(#paint34_linear)" stroke-width="0.424927" stroke-linejoin="round"/>
<path d="M180.534 54.6284C180.534 54.5594 180.5 54.4947 180.444 54.4549L179.223 53.593C179.71 53.057 180.007 52.3445 180.007 51.5627C180.007 49.8957 178.656 48.5444 176.989 48.5444C175.322 48.5444 173.971 49.8957 173.971 51.5627C173.971 52.3813 174.297 53.1238 174.826 53.6674L173.71 54.4549C173.654 54.4947 173.62 54.5594 173.62 54.6284V56.473C173.62 56.5903 173.715 56.6854 173.833 56.6854H174.986C174.854 57.3952 174.379 58.1205 173.749 58.7836C173.012 59.558 172.123 60.1847 171.536 60.5204L171.536 60.5204L171.447 60.5709C171.381 60.6087 171.34 60.6791 171.34 60.7554V63.4876C171.34 63.605 171.435 63.7001 171.553 63.7001H182.601C182.718 63.7001 182.813 63.605 182.813 63.4876V60.7554C182.813 60.6791 182.772 60.6087 182.706 60.5709L182.618 60.5204C182.03 60.1847 181.141 59.558 180.405 58.7836C179.774 58.1205 179.299 57.3952 179.167 56.6854H180.321C180.438 56.6854 180.534 56.5903 180.534 56.473V54.6284Z" fill="url(#paint35_linear)" stroke="url(#paint36_linear)" stroke-width="0.424927" stroke-linejoin="round"/>
<path d="M150.452 54.6284C150.452 54.5594 150.418 54.4947 150.362 54.4549L149.141 53.593C149.628 53.057 149.926 52.3445 149.926 51.5627C149.926 49.8957 148.575 48.5444 146.908 48.5444C145.241 48.5444 143.889 49.8957 143.889 51.5627C143.889 52.3813 144.215 53.1238 144.744 53.6674L143.628 54.4549C143.572 54.4947 143.538 54.5594 143.538 54.6284V56.473C143.538 56.5903 143.634 56.6854 143.751 56.6854H144.905C144.773 57.3952 144.298 58.1205 143.667 58.7836C142.931 59.558 142.042 60.1847 141.454 60.5204L141.454 60.5204L141.366 60.5709C141.3 60.6087 141.259 60.6791 141.259 60.7554V63.4876C141.259 63.605 141.354 63.7001 141.471 63.7001H152.519C152.637 63.7001 152.732 63.605 152.732 63.4876V60.7554C152.732 60.6791 152.691 60.6087 152.625 60.5709L152.536 60.5204C151.949 60.1847 151.06 59.558 150.323 58.7836C149.693 58.1205 149.218 57.3952 149.086 56.6854H150.24C150.357 56.6854 150.452 56.5903 150.452 56.473V54.6284Z" fill="url(#paint37_linear)" stroke="url(#paint38_linear)" stroke-width="0.424927" stroke-linejoin="round"/>
<path d="M120.37 54.6284C120.37 54.5594 120.337 54.4947 120.281 54.4549L119.059 53.593C119.547 53.057 119.844 52.3445 119.844 51.5627C119.844 49.8957 118.493 48.5444 116.826 48.5444C115.159 48.5444 113.808 49.8957 113.808 51.5627C113.808 52.3813 114.134 53.1238 114.663 53.6674L113.547 54.4549C113.49 54.4947 113.457 54.5594 113.457 54.6284V56.473C113.457 56.5903 113.552 56.6854 113.669 56.6854H114.823C114.691 57.3952 114.216 58.1205 113.586 58.7836C112.849 59.558 111.96 60.1847 111.373 60.5204L111.373 60.5204L111.284 60.5709C111.218 60.6087 111.177 60.6791 111.177 60.7554V63.4876C111.177 63.605 111.272 63.7001 111.39 63.7001H122.438C122.555 63.7001 122.65 63.605 122.65 63.4876V60.7554C122.65 60.6791 122.609 60.6087 122.543 60.5709L122.455 60.5204C121.867 60.1847 120.978 59.558 120.242 58.7836C119.611 58.1205 119.136 57.3952 119.004 56.6854H120.158C120.275 56.6854 120.37 56.5903 120.37 56.473V54.6284Z" fill="url(#paint39_linear)" stroke="url(#paint40_linear)" stroke-width="0.424927" stroke-linejoin="round"/>
<path d="M89.8397 54.6284C89.8397 54.5594 89.8061 54.4947 89.7497 54.4549L88.5287 53.593C89.0162 53.057 89.3136 52.3445 89.3136 51.5627C89.3136 49.8957 87.9622 48.5444 86.2953 48.5444C84.6283 48.5444 83.2769 49.8957 83.2769 51.5627C83.2769 52.3813 83.603 53.1238 84.1318 53.6674L83.0161 54.4549C82.9597 54.4947 82.9262 54.5594 82.9262 54.6284V56.473C82.9262 56.5903 83.0213 56.6854 83.1387 56.6854H84.2924C84.1606 57.3952 83.6855 58.1205 83.0549 58.7836C82.3184 59.558 81.4294 60.1847 80.8418 60.5204L80.8418 60.5204L80.7535 60.5709C80.6873 60.6087 80.6464 60.6791 80.6464 60.7554V63.4876C80.6464 63.605 80.7415 63.7001 80.8589 63.7001H91.907C92.0243 63.7001 92.1195 63.605 92.1195 63.4876V60.7554C92.1195 60.6791 92.0786 60.6087 92.0124 60.5709L91.924 60.5204C91.3365 60.1847 90.4475 59.558 89.711 58.7836C89.0804 58.1205 88.6053 57.3952 88.4735 56.6854H89.6272C89.7446 56.6854 89.8397 56.5903 89.8397 56.473V54.6284Z" fill="url(#paint41_linear)" stroke="url(#paint42_linear)" stroke-width="0.424927" stroke-linejoin="round"/>
<path d="M59.7581 54.6284C59.7581 54.5594 59.7246 54.4947 59.6682 54.4549L58.4472 53.593C58.9346 53.057 59.232 52.3445 59.232 51.5627C59.232 49.8957 57.8807 48.5444 56.2137 48.5444C54.5467 48.5444 53.1954 49.8957 53.1954 51.5627C53.1954 52.3813 53.5214 53.1238 54.0502 53.6674L52.9346 54.4549C52.8782 54.4947 52.8446 54.5594 52.8446 54.6284V56.473C52.8446 56.5903 52.9398 56.6854 53.0571 56.6854H54.2108C54.079 57.3952 53.604 58.1205 52.9734 58.7836C52.2369 59.558 51.3478 60.1847 50.7603 60.5204L50.7603 60.5204L50.6719 60.5709C50.6057 60.6087 50.5649 60.6791 50.5649 60.7554V63.4876C50.5649 63.605 50.66 63.7001 50.7773 63.7001H61.8254C61.9428 63.7001 62.0379 63.605 62.0379 63.4876V60.7554C62.0379 60.6791 61.9971 60.6087 61.9309 60.5709L61.8425 60.5204C61.255 60.1847 60.3659 59.558 59.6294 58.7836C58.9988 58.1205 58.5238 57.3952 58.392 56.6854H59.5457C59.663 56.6854 59.7581 56.5903 59.7581 56.473V54.6284Z" fill="url(#paint43_linear)" stroke="url(#paint44_linear)" stroke-width="0.424927" stroke-linejoin="round"/>
<path d="M29.2279 54.6284C29.2279 54.5594 29.1943 54.4947 29.1379 54.4549L27.9169 53.593C28.4043 53.057 28.7018 52.3445 28.7018 51.5627C28.7018 49.8957 27.3504 48.5444 25.6834 48.5444C24.0165 48.5444 22.6651 49.8957 22.6651 51.5627C22.6651 52.3813 22.9912 53.1238 23.5199 53.6674L22.4043 54.4549C22.3479 54.4947 22.3144 54.5594 22.3144 54.6284V56.473C22.3144 56.5903 22.4095 56.6854 22.5268 56.6854H23.6806C23.5487 57.3952 23.0737 58.1205 22.4431 58.7836C21.7066 59.558 20.8176 60.1847 20.23 60.5204L20.23 60.5204L20.1417 60.5709C20.0755 60.6087 20.0346 60.6791 20.0346 60.7554V63.4876C20.0346 63.605 20.1297 63.7001 20.2471 63.7001H31.2952C31.4125 63.7001 31.5076 63.605 31.5076 63.4876V60.7554C31.5076 60.6791 31.4668 60.6087 31.4006 60.5709L31.3122 60.5204C30.7247 60.1847 29.8357 59.558 29.0991 58.7836C28.4685 58.1205 27.9935 57.3952 27.8617 56.6854H29.0154C29.1327 56.6854 29.2279 56.5903 29.2279 56.473V54.6284Z" fill="url(#paint45_linear)" stroke="url(#paint46_linear)" stroke-width="0.424927" stroke-linejoin="round"/>
<path d="M241.956 54.6284C241.956 54.5594 241.922 54.4947 241.866 54.4549L240.645 53.593C241.132 53.057 241.43 52.3445 241.43 51.5627C241.43 49.8957 240.078 48.5444 238.411 48.5444C236.744 48.5444 235.393 49.8957 235.393 51.5627C235.393 52.3813 235.719 53.1238 236.248 53.6674L235.132 54.4549C235.076 54.4947 235.042 54.5594 235.042 54.6284V56.473C235.042 56.5903 235.138 56.6854 235.255 56.6854H236.409C236.277 57.3952 235.802 58.1205 235.171 58.7836C234.435 59.558 233.546 60.1847 232.958 60.5204L232.958 60.5204L232.87 60.5709C232.803 60.6087 232.763 60.6791 232.763 60.7554V63.4876C232.763 63.605 232.858 63.7001 232.975 63.7001H244.023C244.141 63.7001 244.236 63.605 244.236 63.4876V60.7554C244.236 60.6791 244.195 60.6087 244.129 60.5709L244.04 60.5204C243.453 60.1847 242.564 59.558 241.827 58.7836C241.197 58.1205 240.722 57.3952 240.59 56.6854H241.743C241.861 56.6854 241.956 56.5903 241.956 56.473V54.6284Z" fill="url(#paint47_linear)" stroke="url(#paint48_linear)" stroke-width="0.424927" stroke-linejoin="round"/>
<path d="M20.2148 19.3422C20.0975 19.3422 20.0024 19.4373 20.0024 19.5547V22.1042C20.0024 22.1711 20.0339 22.2341 20.0874 22.2742L22.2566 23.9011L21.7034 28.8796C21.6967 28.9397 21.7159 28.9997 21.7562 29.0448C21.7965 29.0898 21.8541 29.1155 21.9146 29.1155H29.5632C29.6237 29.1155 29.6812 29.0898 29.7216 29.0448C29.7619 28.9997 29.7811 28.9397 29.7744 28.8796L29.2212 23.9011L31.3904 22.2742C31.4439 22.2341 31.4754 22.1711 31.4754 22.1042V19.5547C31.4754 19.4373 31.3803 19.3422 31.2629 19.3422H28.4301C28.3128 19.3422 28.2176 19.4373 28.2176 19.5547V21.0419H27.5094V19.5547C27.5094 19.4373 27.4143 19.3422 27.297 19.3422H24.1808C24.0635 19.3422 23.9684 19.4373 23.9684 19.5547V21.0419H23.2602V19.5547C23.2602 19.4373 23.165 19.3422 23.0477 19.3422H20.2148ZM21.9146 29.8238C21.8477 29.8238 21.7847 29.8552 21.7446 29.9087L20.0449 32.175C20.0173 32.2118 20.0024 32.2565 20.0024 32.3025V34.5688C20.0024 34.6861 20.0975 34.7812 20.2148 34.7812H31.2629C31.3803 34.7812 31.4754 34.6861 31.4754 34.5688V32.3025C31.4754 32.2565 31.4605 32.2118 31.4329 32.175L29.7332 29.9087C29.6931 29.8552 29.6301 29.8238 29.5632 29.8238H21.9146Z" fill="url(#paint49_linear)" stroke="url(#paint50_linear)" stroke-width="0.424927" stroke-linejoin="round"/>
<path d="M232.526 19.3422C232.409 19.3422 232.313 19.4373 232.313 19.5547V22.1042C232.313 22.1711 232.345 22.2341 232.398 22.2742L234.568 23.9011L234.014 28.8796C234.008 28.9397 234.027 28.9997 234.067 29.0448C234.108 29.0898 234.165 29.1155 234.226 29.1155H241.874C241.935 29.1155 241.992 29.0898 242.033 29.0448C242.073 28.9997 242.092 28.9397 242.085 28.8796L241.532 23.9011L243.701 22.2742C243.755 22.2341 243.786 22.1711 243.786 22.1042V19.5547C243.786 19.4373 243.691 19.3422 243.574 19.3422H240.741C240.624 19.3422 240.529 19.4373 240.529 19.5547V21.0419H239.82V19.5547C239.82 19.4373 239.725 19.3422 239.608 19.3422H236.492C236.375 19.3422 236.279 19.4373 236.279 19.5547V21.0419H235.571V19.5547C235.571 19.4373 235.476 19.3422 235.359 19.3422H232.526ZM234.226 29.8238C234.159 29.8238 234.096 29.8552 234.056 29.9087L232.356 32.175C232.328 32.2118 232.313 32.2565 232.313 32.3025V34.5688C232.313 34.6861 232.409 34.7812 232.526 34.7812H243.574C243.691 34.7812 243.786 34.6861 243.786 34.5688V32.3025C243.786 32.2565 243.772 32.2118 243.744 32.175L242.044 29.9087C242.004 29.8552 241.941 29.8238 241.874 29.8238H234.226Z" fill="url(#paint51_linear)" stroke="url(#paint52_linear)" stroke-width="0.424927" stroke-linejoin="round"/>
<path d="M54.2849 19.5934C54.2231 20.0336 54.2371 20.5075 54.4038 20.9413C54.2478 20.9675 54.0978 21.0047 53.9667 21.0573C52.7106 21.5614 51.3744 22.849 50.7236 25.4523C50.553 26.1345 50.254 26.4545 49.8633 26.8703C49.4859 27.2719 49.0391 27.7475 48.6121 28.6725C48.1396 29.6963 48.5443 30.7236 49.294 31.2574C50.0529 31.7977 51.1602 31.8333 52.0714 30.9221C52.9849 30.0086 53.7794 29.633 54.4641 29.3096L54.4802 29.302C54.9649 29.0731 55.4219 28.8573 55.8029 28.4789C55.9982 28.2849 56.17 28.0523 56.3191 27.7607C56.2041 28.5505 55.774 29.5133 54.6418 30.1976C53.661 30.7904 53.0751 31.7069 52.7401 32.5539C52.4063 33.3977 52.3124 34.195 52.3337 34.5806C52.3399 34.6932 52.433 34.7814 52.5458 34.7814H63.1109C63.2283 34.7814 63.3234 34.6862 63.3234 34.5689C63.3234 31.2348 63.1036 28.1002 62.2791 25.6818C61.4599 23.2786 60.0301 21.5504 57.6067 21.0653L55.0957 18.1366C55.0499 18.0832 54.9806 18.0559 54.9107 18.0638C54.8408 18.0716 54.7793 18.1136 54.7465 18.1759C54.5518 18.5453 54.3604 19.0549 54.2849 19.5934Z" fill="url(#paint53_linear)" stroke="url(#paint54_linear)" stroke-width="0.424927" stroke-linejoin="round"/>
<circle cx="54.3289" cy="24.6541" r="0.849854" fill="url(#paint55_linear)"/>
<path d="M206.064 19.5929C206.003 20.0331 206.017 20.5071 206.183 20.9409C206.027 20.9671 205.877 21.0043 205.746 21.0569C204.49 21.561 203.154 22.8486 202.503 25.452C202.332 26.1343 202.033 26.4543 201.643 26.8701C201.265 27.2717 200.818 27.7473 200.391 28.6724C199.919 29.6962 200.324 30.7235 201.073 31.2574C201.832 31.7977 202.94 31.8332 203.851 30.922C204.764 30.0085 205.559 29.6329 206.244 29.3095L206.26 29.3019C206.744 29.073 207.201 28.8572 207.582 28.4787C207.778 28.2847 207.95 28.0521 208.099 27.7605C207.984 28.5503 207.554 29.5132 206.421 30.1975C205.44 30.7903 204.855 31.7068 204.52 32.5538C204.186 33.3977 204.092 34.195 204.113 34.5806C204.119 34.6932 204.212 34.7814 204.325 34.7814H214.891C215.008 34.7814 215.103 34.6863 215.103 34.5689C215.103 31.2347 214.883 28.1001 214.059 25.6815C213.24 23.2783 211.81 21.55 209.386 21.0649L206.875 18.1361C206.829 18.0827 206.76 18.0554 206.69 18.0633C206.62 18.0711 206.559 18.1131 206.526 18.1754C206.331 18.5449 206.14 19.0544 206.064 19.5929Z" fill="url(#paint56_linear)" stroke="url(#paint57_linear)" stroke-width="0.424927" stroke-linejoin="round"/>
<ellipse cx="206.109" cy="24.6541" rx="0.849881" ry="0.849881" fill="url(#paint58_linear)"/>
<path d="M84.829 22.0098C84.2679 22.4428 83.5451 23.1414 82.9376 24.0335C82.2598 25.0287 81.7167 26.2781 81.7167 27.677C81.7167 29.9424 83.1308 31.1361 84.2979 31.65L80.9933 32.2346C80.8918 32.2526 80.8178 32.3408 80.8178 32.4438V34.5685C80.8178 34.6858 80.9129 34.7809 81.0303 34.7809L91.8169 34.7809C91.8732 34.7809 91.9273 34.7585 91.9671 34.7187C92.007 34.6788 92.0293 34.6248 92.0293 34.5685V32.4438C92.0293 32.3406 91.9552 32.2524 91.8536 32.2345L88.4338 31.6348C89.5935 31.1129 90.9806 29.9204 90.9806 27.677C90.9806 25.8625 90.1364 24.2563 89.1221 23.0972C89.0479 23.0123 88.9204 23.0002 88.8315 23.0696C88.2511 23.5226 87.7373 24.2633 87.3693 25.0658C87.0343 25.7962 86.8105 26.5985 86.7725 27.3147H86.0608C86.1025 25.3468 86.7247 23.414 88.0298 21.9926C88.0351 21.9869 88.04 21.9809 88.0446 21.9747C88.2892 21.6416 88.4338 21.2302 88.4338 20.7856C88.4338 19.6753 87.5338 18.7753 86.4236 18.7753C85.3134 18.7753 84.4133 19.6753 84.4133 20.7856C84.4133 21.2462 84.5685 21.6709 84.829 22.0098Z" fill="url(#paint59_linear)" stroke="url(#paint60_linear)" stroke-width="0.424927" stroke-linejoin="round"/>
<path d="M176.076 22.0098C175.515 22.4428 174.792 23.1414 174.185 24.0335C173.507 25.0287 172.964 26.2781 172.964 27.677C172.964 29.9424 174.378 31.1361 175.545 31.65L172.24 32.2346C172.139 32.2526 172.065 32.3408 172.065 32.4438V34.5685C172.065 34.6858 172.16 34.7809 172.277 34.7809L183.064 34.7809C183.12 34.7809 183.174 34.7585 183.214 34.7187C183.254 34.6788 183.276 34.6248 183.276 34.5685V32.4438C183.276 32.3406 183.202 32.2524 183.101 32.2345L179.681 31.6348C180.841 31.1129 182.228 29.9204 182.228 27.677C182.228 25.8625 181.383 24.2563 180.369 23.0972C180.295 23.0123 180.167 23.0002 180.079 23.0696C179.498 23.5226 178.984 24.2633 178.616 25.0658C178.281 25.7962 178.058 26.5985 178.02 27.3147H177.308C177.35 25.3468 177.972 23.414 179.277 21.9926C179.282 21.9869 179.287 21.9809 179.292 21.9747C179.536 21.6416 179.681 21.2302 179.681 20.7856C179.681 19.6753 178.781 18.7753 177.671 18.7753C176.56 18.7753 175.66 19.6753 175.66 20.7856C175.66 21.2462 175.816 21.6709 176.076 22.0098Z" fill="url(#paint61_linear)" stroke="url(#paint62_linear)" stroke-width="0.424927" stroke-linejoin="round"/>
<g clip-path="url(#clip0)">
<path d="M116.537 17.9257C116.422 17.9257 116.328 18.0168 116.325 18.1315L116.287 19.3421H114.837C114.72 19.3421 114.625 19.4373 114.625 19.5546V21.2543C114.625 21.3717 114.72 21.4668 114.837 21.4668H116.218L116.17 22.6716C115.422 21.9506 114.526 21.3982 113.605 21.1647C112.571 20.9029 111.501 21.043 110.594 21.7993C108.772 23.3175 108.812 26.7344 111.237 28.6864C111.902 29.2216 112.511 29.7317 112.95 30.2887C113.346 30.7925 113.593 31.3242 113.613 31.9362L111.415 32.2335C111.31 32.2478 111.231 32.3377 111.231 32.4441V34.5687C111.231 34.686 111.326 34.7812 111.444 34.7812H123.33C123.447 34.7812 123.542 34.686 123.542 34.5687V32.4441C123.542 32.3377 123.464 32.2478 123.358 32.2335L121.161 31.9362C121.18 31.3242 121.428 30.7925 121.824 30.2887C122.262 29.7317 122.872 29.2216 123.537 28.6864C125.961 26.7344 126.002 23.3175 124.18 21.7993C123.272 21.043 122.202 20.9029 121.169 21.1647C120.247 21.3982 119.352 21.9506 118.604 22.6716L118.555 21.4668H119.936C120.054 21.4668 120.149 21.3717 120.149 21.2543V19.5546C120.149 19.4373 120.054 19.3421 119.936 19.3421H118.487L118.449 18.1315C118.445 18.0168 118.351 17.9257 118.237 17.9257H116.537ZM114.755 24.7568C115.674 26.2636 115.869 28.012 115.896 28.9533C115.805 28.9302 115.694 28.8952 115.563 28.846C115.301 28.7474 114.985 28.6003 114.651 28.4089C113.981 28.0249 113.257 27.4726 112.761 26.7957C112.409 26.3161 112.187 25.7181 112.129 25.1752C112.07 24.6221 112.184 24.1819 112.431 23.9555C112.677 23.7301 113.089 23.6672 113.547 23.8066C113.999 23.9442 114.458 24.2709 114.755 24.7568ZM118.878 28.9533C118.905 28.012 119.099 26.2636 120.019 24.7568C120.316 24.2709 120.774 23.9442 121.227 23.8066C121.685 23.6672 122.096 23.7301 122.342 23.9555C122.589 24.1819 122.704 24.6221 122.645 25.1752C122.587 25.7181 122.364 26.3161 122.013 26.7957C121.517 27.4726 120.793 28.0249 120.123 28.4089C119.789 28.6003 119.473 28.7474 119.211 28.846C119.08 28.8952 118.968 28.9302 118.878 28.9533Z" fill="url(#paint63_linear)" stroke="url(#paint64_linear)" stroke-width="0.424927" stroke-linejoin="round"/>
</g>
<path d="M142.255 29.5803L143.733 31.9988L142.399 32.2348C142.298 32.2527 142.224 32.3409 142.224 32.444V34.5686C142.224 34.686 142.319 34.7811 142.436 34.7811L153.223 34.7811C153.279 34.7811 153.333 34.7587 153.373 34.7189C153.413 34.679 153.435 34.625 153.435 34.5686V32.444C153.435 32.3408 153.361 32.2525 153.259 32.2347L151.905 31.9972L153.382 29.5803C153.392 29.5643 153.4 29.547 153.405 29.529L154.936 24.2807C155.017 24.2931 155.1 24.2995 155.184 24.2995C156.083 24.2995 156.813 23.5703 156.813 22.6707C156.813 21.7711 156.083 21.0418 155.184 21.0418C154.284 21.0418 153.555 21.7711 153.555 22.6707C153.555 23.0574 153.69 23.4129 153.915 23.6922L151.337 25.9313L150.779 21.4145C151.479 21.2324 151.997 20.5957 151.997 19.8378C151.997 18.9382 151.268 18.2089 150.368 18.2089C149.468 18.2089 148.739 18.9382 148.739 19.8378C148.739 20.4524 149.079 20.9871 149.581 21.2644L147.818 25.2604L146.056 21.2644C146.557 20.9871 146.898 20.4524 146.898 19.8378C146.898 18.9382 146.168 18.2089 145.269 18.2089C144.369 18.2089 143.64 18.9382 143.64 19.8378C143.64 20.5957 144.157 21.2324 144.858 21.4145L144.3 25.9313L141.722 23.6922C141.947 23.4129 142.082 23.0574 142.082 22.6707C142.082 21.7711 141.353 21.0418 140.453 21.0418C139.553 21.0418 138.824 21.7711 138.824 22.6707C138.824 23.5703 139.553 24.2995 140.453 24.2995C140.537 24.2995 140.62 24.2931 140.701 24.2807L142.232 29.529C142.237 29.547 142.245 29.5643 142.255 29.5803Z" fill="url(#paint65_linear)" stroke="url(#paint66_linear)" stroke-width="0.424927" stroke-linejoin="round"/>
<path d="M258.474 241.163H257.714V238.232L256.807 238.514V237.896L258.393 237.327H258.474V241.163Z" fill="#CD9B49"/>
<path d="M259.253 210.633H256.628V210.112L257.867 208.791C258.037 208.605 258.162 208.443 258.243 208.305C258.325 208.166 258.367 208.035 258.367 207.91C258.367 207.74 258.324 207.607 258.238 207.51C258.152 207.412 258.029 207.363 257.869 207.363C257.697 207.363 257.562 207.422 257.462 207.542C257.363 207.659 257.314 207.814 257.314 208.007H256.551C256.551 207.774 256.607 207.561 256.717 207.368C256.829 207.175 256.987 207.024 257.191 206.916C257.394 206.805 257.625 206.75 257.882 206.75C258.277 206.75 258.583 206.845 258.801 207.034C259.02 207.223 259.129 207.491 259.129 207.836C259.129 208.026 259.08 208.219 258.982 208.415C258.884 208.612 258.716 208.84 258.477 209.102L257.606 210.02H259.253V210.633Z" fill="#CD9B49"/>
<path d="M257.401 178.299H257.806C257.999 178.299 258.142 178.251 258.235 178.154C258.328 178.058 258.374 177.93 258.374 177.77C258.374 177.616 258.328 177.496 258.235 177.41C258.144 177.324 258.018 177.281 257.856 177.281C257.711 177.281 257.589 177.321 257.491 177.402C257.392 177.481 257.343 177.584 257.343 177.712H256.583C256.583 177.512 256.636 177.333 256.743 177.176C256.852 177.016 257.003 176.891 257.196 176.802C257.391 176.713 257.605 176.668 257.838 176.668C258.243 176.668 258.56 176.765 258.79 176.96C259.02 177.153 259.135 177.419 259.135 177.76C259.135 177.935 259.081 178.096 258.974 178.244C258.867 178.391 258.727 178.504 258.553 178.583C258.769 178.66 258.93 178.776 259.035 178.93C259.142 179.085 259.195 179.267 259.195 179.477C259.195 179.818 259.071 180.09 258.822 180.296C258.574 180.501 258.246 180.603 257.838 180.603C257.455 180.603 257.142 180.503 256.899 180.301C256.657 180.099 256.536 179.833 256.536 179.501H257.296C257.296 179.645 257.349 179.762 257.456 179.854C257.565 179.945 257.698 179.99 257.856 179.99C258.037 179.99 258.178 179.943 258.28 179.848C258.383 179.752 258.435 179.625 258.435 179.467C258.435 179.085 258.224 178.893 257.804 178.893H257.401V178.299Z" fill="#CD9B49"/>
<path d="M258.877 149.028H259.311V149.641H258.877V150.469H258.117V149.641H256.546L256.512 149.162L258.109 146.639H258.877V149.028ZM257.27 149.028H258.117V147.675L258.067 147.762L257.27 149.028Z" fill="#CD9B49"/>
<path d="M256.741 118.055L256.962 116.109H259.108V116.743H257.585L257.491 117.566C257.671 117.47 257.863 117.421 258.067 117.421C258.431 117.421 258.717 117.534 258.924 117.761C259.131 117.987 259.235 118.304 259.235 118.71C259.235 118.958 259.182 119.18 259.077 119.376C258.973 119.571 258.824 119.722 258.63 119.831C258.435 119.938 258.205 119.992 257.94 119.992C257.709 119.992 257.494 119.945 257.296 119.852C257.098 119.757 256.941 119.625 256.825 119.455C256.711 119.285 256.65 119.091 256.643 118.874H257.396C257.412 119.033 257.467 119.158 257.562 119.247C257.658 119.335 257.783 119.379 257.938 119.379C258.11 119.379 258.242 119.317 258.335 119.194C258.428 119.07 258.474 118.895 258.474 118.668C258.474 118.451 258.421 118.284 258.314 118.168C258.207 118.053 258.055 117.995 257.859 117.995C257.678 117.995 257.532 118.042 257.419 118.137L257.346 118.205L256.741 118.055Z" fill="#CD9B49"/>
<path d="M258.69 85.9871V86.6132H258.616C258.273 86.6185 257.996 86.7079 257.785 86.8816C257.576 87.0552 257.451 87.2963 257.409 87.605C257.612 87.3981 257.869 87.2946 258.18 87.2946C258.513 87.2946 258.778 87.4139 258.974 87.6524C259.171 87.8909 259.269 88.2048 259.269 88.5942C259.269 88.8432 259.215 89.0686 259.106 89.2703C258.999 89.472 258.846 89.6289 258.648 89.7412C258.452 89.8534 258.229 89.9095 257.98 89.9095C257.576 89.9095 257.25 89.7692 257.001 89.4886C256.754 89.208 256.63 88.8336 256.63 88.3653V88.0917C256.63 87.6761 256.708 87.3095 256.864 86.9921C257.022 86.6729 257.248 86.4264 257.54 86.2528C257.835 86.0774 258.176 85.9889 258.564 85.9871H258.69ZM257.948 87.9049C257.825 87.9049 257.714 87.9374 257.614 88.0023C257.514 88.0654 257.441 88.1496 257.393 88.2548V88.4863C257.393 88.7406 257.443 88.9397 257.543 89.0835C257.643 89.2256 257.783 89.2966 257.964 89.2966C258.127 89.2966 258.259 89.2326 258.359 89.1045C258.46 88.9748 258.511 88.8073 258.511 88.6021C258.511 88.3934 258.46 88.225 258.359 88.097C258.257 87.9689 258.12 87.9049 257.948 87.9049Z" fill="#CD9B49"/>
<path d="M259.232 55.9225L257.751 59.3267H256.949L258.432 56.1119H256.528V55.4963H259.232V55.9225Z" fill="#CD9B49"/>
<path d="M259.124 25.5349C259.124 25.7208 259.078 25.8857 258.985 26.0295C258.892 26.1733 258.764 26.2882 258.601 26.3741C258.787 26.4636 258.934 26.5872 259.043 26.745C259.151 26.9011 259.206 27.0853 259.206 27.2975C259.206 27.6377 259.09 27.907 258.858 28.1051C258.627 28.3016 258.312 28.3998 257.914 28.3998C257.516 28.3998 257.2 28.3007 256.967 28.1025C256.734 27.9043 256.617 27.636 256.617 27.2975C256.617 27.0853 256.671 26.9003 256.78 26.7424C256.889 26.5846 257.035 26.4618 257.22 26.3741C257.056 26.2882 256.928 26.1733 256.835 26.0295C256.744 25.8857 256.699 25.7208 256.699 25.5349C256.699 25.2087 256.807 24.9491 257.025 24.7562C257.242 24.5615 257.538 24.4642 257.911 24.4642C258.283 24.4642 258.578 24.5607 258.795 24.7536C259.015 24.9447 259.124 25.2052 259.124 25.5349ZM258.443 27.2423C258.443 27.0756 258.395 26.9424 258.298 26.8424C258.202 26.7424 258.072 26.6924 257.909 26.6924C257.747 26.6924 257.619 26.7424 257.522 26.8424C257.426 26.9406 257.377 27.0739 257.377 27.2423C257.377 27.4054 257.425 27.5369 257.519 27.6369C257.614 27.7368 257.746 27.7868 257.914 27.7868C258.079 27.7868 258.208 27.7386 258.301 27.6421C258.395 27.5457 258.443 27.4124 258.443 27.2423ZM258.364 25.5717C258.364 25.4227 258.324 25.3034 258.246 25.214C258.167 25.1228 258.055 25.0772 257.911 25.0772C257.769 25.0772 257.659 25.121 257.58 25.2087C257.501 25.2964 257.462 25.4174 257.462 25.5717C257.462 25.7243 257.501 25.8471 257.58 25.94C257.659 26.033 257.77 26.0795 257.914 26.0795C258.058 26.0795 258.168 26.033 258.246 25.94C258.324 25.8471 258.364 25.7243 258.364 25.5717Z" fill="#CD9B49"/>
<defs>
<linearGradient id="paint0_linear" x1="295.726" y1="-163.858" x2="-73.8977" y2="-113.697" gradientUnits="userSpaceOnUse">
<stop stop-color="#E1B168"/>
<stop offset="1" stop-color="#BD8830" stop-opacity="0.8"/>
</linearGradient>
<linearGradient id="paint1_linear" x1="46.6257" y1="201.809" x2="0.777386" y2="208.031" gradientUnits="userSpaceOnUse">
<stop stop-color="#E1B168"/>
<stop offset="1" stop-color="#BD8830" stop-opacity="0.8"/>
</linearGradient>
<linearGradient id="paint2_linear" x1="46.6257" y1="141.306" x2="0.777388" y2="147.528" gradientUnits="userSpaceOnUse">
<stop stop-color="#E1B168"/>
<stop offset="1" stop-color="#BD8830" stop-opacity="0.8"/>
</linearGradient>
<linearGradient id="paint3_linear" x1="76.8659" y1="171.558" x2="31.0176" y2="177.78" gradientUnits="userSpaceOnUse">
<stop stop-color="#E1B168"/>
<stop offset="1" stop-color="#BD8830" stop-opacity="0.8"/>
</linearGradient>
<linearGradient id="paint4_linear" x1="137.347" y1="171.558" x2="91.4991" y2="177.78" gradientUnits="userSpaceOnUse">
<stop stop-color="#E1B168"/>
<stop offset="1" stop-color="#BD8830" stop-opacity="0.8"/>
</linearGradient>
<linearGradient id="paint5_linear" x1="197.828" y1="171.558" x2="151.98" y2="177.78" gradientUnits="userSpaceOnUse">
<stop stop-color="#E1B168"/>
<stop offset="1" stop-color="#BD8830" stop-opacity="0.8"/>
</linearGradient>
<linearGradient id="paint6_linear" x1="258.309" y1="171.558" x2="212.461" y2="177.78" gradientUnits="userSpaceOnUse">
<stop stop-color="#E1B168"/>
<stop offset="1" stop-color="#BD8830" stop-opacity="0.8"/>
</linearGradient>
<linearGradient id="paint7_linear" x1="107.107" y1="141.306" x2="61.2583" y2="147.528" gradientUnits="userSpaceOnUse">
<stop stop-color="#E1B168"/>
<stop offset="1" stop-color="#BD8830" stop-opacity="0.8"/>
</linearGradient>
<linearGradient id="paint8_linear" x1="167.588" y1="141.306" x2="121.74" y2="147.528" gradientUnits="userSpaceOnUse">
<stop stop-color="#E1B168"/>
<stop offset="1" stop-color="#BD8830" stop-opacity="0.8"/>
</linearGradient>
<linearGradient id="paint9_linear" x1="228.069" y1="141.306" x2="182.221" y2="147.528" gradientUnits="userSpaceOnUse">
<stop stop-color="#E1B168"/>
<stop offset="1" stop-color="#BD8830" stop-opacity="0.8"/>
</linearGradient>
<linearGradient id="paint10_linear" x1="46.6257" y1="80.8003" x2="0.777388" y2="87.0223" gradientUnits="userSpaceOnUse">
<stop stop-color="#E1B168"/>
<stop offset="1" stop-color="#BD8830" stop-opacity="0.8"/>
</linearGradient>
<linearGradient id="paint11_linear" x1="76.8659" y1="111.055" x2="31.0176" y2="117.277" gradientUnits="userSpaceOnUse">
<stop stop-color="#E1B168"/>
<stop offset="1" stop-color="#BD8830" stop-opacity="0.8"/>
</linearGradient>
<linearGradient id="paint12_linear" x1="137.347" y1="111.055" x2="91.4991" y2="117.277" gradientUnits="userSpaceOnUse">
<stop stop-color="#E1B168"/>
<stop offset="1" stop-color="#BD8830" stop-opacity="0.8"/>
</linearGradient>
<linearGradient id="paint13_linear" x1="197.828" y1="111.055" x2="151.98" y2="117.277" gradientUnits="userSpaceOnUse">
<stop stop-color="#E1B168"/>
<stop offset="1" stop-color="#BD8830" stop-opacity="0.8"/>
</linearGradient>
<linearGradient id="paint14_linear" x1="258.309" y1="111.055" x2="212.461" y2="117.277" gradientUnits="userSpaceOnUse">
<stop stop-color="#E1B168"/>
<stop offset="1" stop-color="#BD8830" stop-opacity="0.8"/>
</linearGradient>
<linearGradient id="paint15_linear" x1="107.107" y1="80.8003" x2="61.2583" y2="87.0223" gradientUnits="userSpaceOnUse">
<stop stop-color="#E1B168"/>
<stop offset="1" stop-color="#BD8830" stop-opacity="0.8"/>
</linearGradient>
<linearGradient id="paint16_linear" x1="167.588" y1="80.8003" x2="121.74" y2="87.0223" gradientUnits="userSpaceOnUse">
<stop stop-color="#E1B168"/>
<stop offset="1" stop-color="#BD8830" stop-opacity="0.8"/>
</linearGradient>
<linearGradient id="paint17_linear" x1="228.069" y1="80.8003" x2="182.221" y2="87.0223" gradientUnits="userSpaceOnUse">
<stop stop-color="#E1B168"/>
<stop offset="1" stop-color="#BD8830" stop-opacity="0.8"/>
</linearGradient>
<linearGradient id="paint18_linear" x1="46.6257" y1="20.2984" x2="0.777387" y2="26.5203" gradientUnits="userSpaceOnUse">
<stop stop-color="#E1B168"/>
<stop offset="1" stop-color="#BD8830" stop-opacity="0.8"/>
</linearGradient>
<linearGradient id="paint19_linear" x1="76.7671" y1="-9.98308" x2="30.9216" y2="-3.76146" gradientUnits="userSpaceOnUse">
<stop stop-color="#E1B168"/>
<stop offset="1" stop-color="#BD8830" stop-opacity="0.8"/>
</linearGradient>
<linearGradient id="paint20_linear" x1="137.347" y1="-9.95652" x2="91.4991" y2="-3.73454" gradientUnits="userSpaceOnUse">
<stop stop-color="#E1B168"/>
<stop offset="1" stop-color="#BD8830" stop-opacity="0.8"/>
</linearGradient>
<linearGradient id="paint21_linear" x1="197.828" y1="-9.95652" x2="151.98" y2="-3.73454" gradientUnits="userSpaceOnUse">
<stop stop-color="#E1B168"/>
<stop offset="1" stop-color="#BD8830" stop-opacity="0.8"/>
</linearGradient>
<linearGradient id="paint22_linear" x1="258.309" y1="-9.95652" x2="212.461" y2="-3.73454" gradientUnits="userSpaceOnUse">
<stop stop-color="#E1B168"/>
<stop offset="1" stop-color="#BD8830" stop-opacity="0.8"/>
</linearGradient>
<linearGradient id="paint23_linear" x1="76.8664" y1="50.5493" x2="31.0181" y2="56.7713" gradientUnits="userSpaceOnUse">
<stop stop-color="#E1B168"/>
<stop offset="1" stop-color="#BD8830" stop-opacity="0.8"/>
</linearGradient>
<linearGradient id="paint24_linear" x1="137.347" y1="50.5493" x2="91.4991" y2="56.7713" gradientUnits="userSpaceOnUse">
<stop stop-color="#E1B168"/>
<stop offset="1" stop-color="#BD8830" stop-opacity="0.8"/>
</linearGradient>
<linearGradient id="paint25_linear" x1="197.828" y1="50.5493" x2="151.98" y2="56.7713" gradientUnits="userSpaceOnUse">
<stop stop-color="#E1B168"/>
<stop offset="1" stop-color="#BD8830" stop-opacity="0.8"/>
</linearGradient>
<linearGradient id="paint26_linear" x1="258.309" y1="50.5493" x2="212.461" y2="56.7713" gradientUnits="userSpaceOnUse">
<stop stop-color="#E1B168"/>
<stop offset="1" stop-color="#BD8830" stop-opacity="0.8"/>
</linearGradient>
<linearGradient id="paint27_linear" x1="107.107" y1="20.2984" x2="61.2583" y2="26.5203" gradientUnits="userSpaceOnUse">
<stop stop-color="#E1B168"/>
<stop offset="1" stop-color="#BD8830" stop-opacity="0.8"/>
</linearGradient>
<linearGradient id="paint28_linear" x1="167.588" y1="20.2984" x2="121.74" y2="26.5203" gradientUnits="userSpaceOnUse">
<stop stop-color="#E1B168"/>
<stop offset="1" stop-color="#BD8830" stop-opacity="0.8"/>
</linearGradient>
<linearGradient id="paint29_linear" x1="228.069" y1="20.2984" x2="182.221" y2="26.5203" gradientUnits="userSpaceOnUse">
<stop stop-color="#E1B168"/>
<stop offset="1" stop-color="#BD8830" stop-opacity="0.8"/>
</linearGradient>
<linearGradient id="paint30_linear" x1="107.107" y1="201.809" x2="61.2583" y2="208.031" gradientUnits="userSpaceOnUse">
<stop stop-color="#E1B168"/>
<stop offset="1" stop-color="#BD8830" stop-opacity="0.8"/>
</linearGradient>
<linearGradient id="paint31_linear" x1="167.588" y1="201.809" x2="121.74" y2="208.031" gradientUnits="userSpaceOnUse">
<stop stop-color="#E1B168"/>
<stop offset="1" stop-color="#BD8830" stop-opacity="0.8"/>
</linearGradient>
<linearGradient id="paint32_linear" x1="228.069" y1="201.809" x2="182.221" y2="208.031" gradientUnits="userSpaceOnUse">
<stop stop-color="#E1B168"/>
<stop offset="1" stop-color="#BD8830" stop-opacity="0.8"/>
</linearGradient>
<linearGradient id="paint33_linear" x1="215.194" y1="38.2088" x2="198.31" y2="39.9279" gradientUnits="userSpaceOnUse">
<stop stop-color="#FEFDFB"/>
<stop offset="1" stop-color="#E4D2B4"/>
</linearGradient>
<linearGradient id="paint34_linear" x1="225.335" y1="33.4736" x2="222.139" y2="67.6472" gradientUnits="userSpaceOnUse">
<stop stop-color="#3D3D3D" stop-opacity="0.92"/>
<stop offset="0.474524" stop-color="#232323" stop-opacity="0.959834"/>
<stop offset="1" stop-color="#040404"/>
</linearGradient>
<linearGradient id="paint35_linear" x1="184.486" y1="38.2088" x2="167.602" y2="39.9279" gradientUnits="userSpaceOnUse">
<stop stop-color="#FEFDFB"/>
<stop offset="1" stop-color="#E4D2B4"/>
</linearGradient>
<linearGradient id="paint36_linear" x1="194.627" y1="33.4736" x2="191.431" y2="67.6472" gradientUnits="userSpaceOnUse">
<stop stop-color="#3D3D3D" stop-opacity="0.92"/>
<stop offset="0.474524" stop-color="#232323" stop-opacity="0.959834"/>
<stop offset="1" stop-color="#040404"/>
</linearGradient>
<linearGradient id="paint37_linear" x1="154.405" y1="38.2088" x2="137.521" y2="39.9279" gradientUnits="userSpaceOnUse">
<stop stop-color="#FEFDFB"/>
<stop offset="1" stop-color="#E4D2B4"/>
</linearGradient>
<linearGradient id="paint38_linear" x1="164.546" y1="33.4736" x2="161.35" y2="67.6472" gradientUnits="userSpaceOnUse">
<stop stop-color="#3D3D3D" stop-opacity="0.92"/>
<stop offset="0.474524" stop-color="#232323" stop-opacity="0.959834"/>
<stop offset="1" stop-color="#040404"/>
</linearGradient>
<linearGradient id="paint39_linear" x1="124.323" y1="38.2088" x2="107.439" y2="39.9279" gradientUnits="userSpaceOnUse">
<stop stop-color="#FEFDFB"/>
<stop offset="1" stop-color="#E4D2B4"/>
</linearGradient>
<linearGradient id="paint40_linear" x1="134.464" y1="33.4736" x2="131.268" y2="67.6472" gradientUnits="userSpaceOnUse">
<stop stop-color="#3D3D3D" stop-opacity="0.92"/>
<stop offset="0.474524" stop-color="#232323" stop-opacity="0.959834"/>
<stop offset="1" stop-color="#040404"/>
</linearGradient>
<linearGradient id="paint41_linear" x1="93.7923" y1="38.2088" x2="76.9086" y2="39.9279" gradientUnits="userSpaceOnUse">
<stop stop-color="#FEFDFB"/>
<stop offset="1" stop-color="#E4D2B4"/>
</linearGradient>
<linearGradient id="paint42_linear" x1="103.933" y1="33.4736" x2="100.737" y2="67.6472" gradientUnits="userSpaceOnUse">
<stop stop-color="#3D3D3D" stop-opacity="0.92"/>
<stop offset="0.474524" stop-color="#232323" stop-opacity="0.959834"/>
<stop offset="1" stop-color="#040404"/>
</linearGradient>
<linearGradient id="paint43_linear" x1="63.7108" y1="38.2088" x2="46.8271" y2="39.9279" gradientUnits="userSpaceOnUse">
<stop stop-color="#FEFDFB"/>
<stop offset="1" stop-color="#E4D2B4"/>
</linearGradient>
<linearGradient id="paint44_linear" x1="73.8518" y1="33.4736" x2="70.6557" y2="67.6472" gradientUnits="userSpaceOnUse">
<stop stop-color="#3D3D3D" stop-opacity="0.92"/>
<stop offset="0.474524" stop-color="#232323" stop-opacity="0.959834"/>
<stop offset="1" stop-color="#040404"/>
</linearGradient>
<linearGradient id="paint45_linear" x1="33.1805" y1="38.2088" x2="16.2968" y2="39.9279" gradientUnits="userSpaceOnUse">
<stop stop-color="#FEFDFB"/>
<stop offset="1" stop-color="#E4D2B4"/>
</linearGradient>
<linearGradient id="paint46_linear" x1="43.3215" y1="33.4736" x2="40.1255" y2="67.6472" gradientUnits="userSpaceOnUse">
<stop stop-color="#3D3D3D" stop-opacity="0.92"/>
<stop offset="0.474524" stop-color="#232323" stop-opacity="0.959834"/>
<stop offset="1" stop-color="#040404"/>
</linearGradient>
<linearGradient id="paint47_linear" x1="245.909" y1="38.2088" x2="229.025" y2="39.9279" gradientUnits="userSpaceOnUse">
<stop stop-color="#FEFDFB"/>
<stop offset="1" stop-color="#E4D2B4"/>
</linearGradient>
<linearGradient id="paint48_linear" x1="256.05" y1="33.4736" x2="252.853" y2="67.6472" gradientUnits="userSpaceOnUse">
<stop stop-color="#3D3D3D" stop-opacity="0.92"/>
<stop offset="0.474524" stop-color="#232323" stop-opacity="0.959834"/>
<stop offset="1" stop-color="#040404"/>
</linearGradient>
<linearGradient id="paint49_linear" x1="33.1483" y1="8.80385" x2="16.2581" y2="10.4912" gradientUnits="userSpaceOnUse">
<stop stop-color="#FEFDFB"/>
<stop offset="1" stop-color="#E4D2B4"/>
</linearGradient>
<linearGradient id="paint50_linear" x1="43.2893" y1="3.97757" x2="39.9702" y2="38.7966" gradientUnits="userSpaceOnUse">
<stop stop-color="#3D3D3D" stop-opacity="0.92"/>
<stop offset="0.474524" stop-color="#232323" stop-opacity="0.959834"/>
<stop offset="1" stop-color="#040404"/>
</linearGradient>
<linearGradient id="paint51_linear" x1="245.459" y1="8.80385" x2="228.569" y2="10.4912" gradientUnits="userSpaceOnUse">
<stop stop-color="#FEFDFB"/>
<stop offset="1" stop-color="#E4D2B4"/>
</linearGradient>
<linearGradient id="paint52_linear" x1="255.6" y1="3.97757" x2="252.281" y2="38.7966" gradientUnits="userSpaceOnUse">
<stop stop-color="#3D3D3D" stop-opacity="0.92"/>
<stop offset="0.474524" stop-color="#232323" stop-opacity="0.959834"/>
<stop offset="1" stop-color="#040404"/>
</linearGradient>
<linearGradient id="paint53_linear" x1="65.5834" y1="6.60759" x2="43.5334" y2="9.26948" gradientUnits="userSpaceOnUse">
<stop stop-color="#FEFDFB"/>
<stop offset="1" stop-color="#E4D2B4"/>
</linearGradient>
<linearGradient id="paint54_linear" x1="78.8827" y1="1.36989" x2="75.8934" y2="39.2647" gradientUnits="userSpaceOnUse">
<stop stop-color="#3D3D3D" stop-opacity="0.92"/>
<stop offset="0.474524" stop-color="#232323" stop-opacity="0.959834"/>
<stop offset="1" stop-color="#040404"/>
</linearGradient>
<linearGradient id="paint55_linear" x1="57.0289" y1="22.0408" x2="56.7513" y2="25.9989" gradientUnits="userSpaceOnUse">
<stop stop-color="#3D3D3D" stop-opacity="0.92"/>
<stop offset="0.474524" stop-color="#232323" stop-opacity="0.959834"/>
<stop offset="1" stop-color="#040404"/>
</linearGradient>
<linearGradient id="paint56_linear" x1="217.363" y1="6.60674" x2="195.313" y2="9.26871" gradientUnits="userSpaceOnUse">
<stop stop-color="#FEFDFB"/>
<stop offset="1" stop-color="#E4D2B4"/>
</linearGradient>
<linearGradient id="paint57_linear" x1="230.663" y1="1.36887" x2="227.674" y2="39.2648" gradientUnits="userSpaceOnUse">
<stop stop-color="#3D3D3D" stop-opacity="0.92"/>
<stop offset="0.474524" stop-color="#232323" stop-opacity="0.959834"/>
<stop offset="1" stop-color="#040404"/>
</linearGradient>
<linearGradient id="paint58_linear" x1="208.809" y1="22.0407" x2="208.531" y2="25.9989" gradientUnits="userSpaceOnUse">
<stop stop-color="#3D3D3D" stop-opacity="0.92"/>
<stop offset="0.474524" stop-color="#232323" stop-opacity="0.959834"/>
<stop offset="1" stop-color="#040404"/>
</linearGradient>
<linearGradient id="paint59_linear" x1="93.6576" y1="7.83126" x2="77.1485" y2="9.38292" gradientUnits="userSpaceOnUse">
<stop stop-color="#FEFDFB"/>
<stop offset="1" stop-color="#E4D2B4"/>
</linearGradient>
<linearGradient id="paint60_linear" x1="103.559" y1="2.82286" x2="99.9019" y2="38.9136" gradientUnits="userSpaceOnUse">
<stop stop-color="#3D3D3D" stop-opacity="0.92"/>
<stop offset="0.474524" stop-color="#232323" stop-opacity="0.959834"/>
<stop offset="1" stop-color="#040404"/>
</linearGradient>
<linearGradient id="paint61_linear" x1="184.905" y1="7.83126" x2="168.396" y2="9.38292" gradientUnits="userSpaceOnUse">
<stop stop-color="#FEFDFB"/>
<stop offset="1" stop-color="#E4D2B4"/>
</linearGradient>
<linearGradient id="paint62_linear" x1="194.806" y1="2.82286" x2="191.149" y2="38.9136" gradientUnits="userSpaceOnUse">
<stop stop-color="#3D3D3D" stop-opacity="0.92"/>
<stop offset="0.474524" stop-color="#232323" stop-opacity="0.959834"/>
<stop offset="1" stop-color="#040404"/>
</linearGradient>
<linearGradient id="paint63_linear" x1="127.931" y1="6.37311" x2="104.058" y2="9.47466" gradientUnits="userSpaceOnUse">
<stop stop-color="#FEFDFB"/>
<stop offset="1" stop-color="#E4D2B4"/>
</linearGradient>
<linearGradient id="paint64_linear" x1="142.363" y1="1.09152" x2="139.56" y2="39.3361" gradientUnits="userSpaceOnUse">
<stop stop-color="#3D3D3D" stop-opacity="0.92"/>
<stop offset="0.474524" stop-color="#232323" stop-opacity="0.959834"/>
<stop offset="1" stop-color="#040404"/>
</linearGradient>
<linearGradient id="paint65_linear" x1="159.597" y1="6.85916" x2="133.057" y2="10.7783" gradientUnits="userSpaceOnUse">
<stop stop-color="#FEFDFB"/>
<stop offset="1" stop-color="#E4D2B4"/>
</linearGradient>
<linearGradient id="paint66_linear" x1="175.719" y1="1.66863" x2="173.292" y2="39.2993" gradientUnits="userSpaceOnUse">
<stop stop-color="#3D3D3D" stop-opacity="0.92"/>
<stop offset="0.474524" stop-color="#232323" stop-opacity="0.959834"/>
<stop offset="1" stop-color="#040404"/>
</linearGradient>
<clipPath id="clip0">
<rect width="20.3965" height="20.3965" fill="white" transform="translate(106.905 17.0049)"/>
</clipPath>
</defs>
</svg>
