<svg width="18" height="18" viewBox="0 0 18 18" fill="none" xmlns="http://www.w3.org/2000/svg">
<path fill-rule="evenodd" clip-rule="evenodd" d="M15.7501 12.69V14.94C15.7518 15.3623 15.5754 15.7658 15.2641 16.0513C14.9529 16.3369 14.5357 16.478 14.1151 16.44C11.8072 16.1892 9.59033 15.4006 7.64258 14.1375C5.83045 12.9859 4.29408 11.4496 3.14258 9.63745C1.87506 7.68085 1.08626 5.4532 0.840077 3.13495C0.802182 2.71561 0.942281 2.29964 1.22615 1.98867C1.51002 1.67769 1.91152 1.50035 2.33258 1.49995H4.58258C5.33548 1.49254 5.9772 2.04443 6.08258 2.78995C6.17754 3.51 6.35366 4.217 6.60758 4.89745C6.81363 5.44561 6.68184 6.06356 6.27008 6.47995L5.31758 7.43245C6.38524 9.31011 7.93992 10.8648 9.81758 11.9325L10.7701 10.98C11.1865 10.5682 11.8044 10.4364 12.3526 10.6425C13.033 10.8964 13.74 11.0725 14.4601 11.1675C15.2142 11.2738 15.769 11.9285 15.7501 12.69Z" stroke="#333333" stroke-width="1.22693" stroke-linecap="round" stroke-linejoin="round"/>
</svg>
