<svg width="15" height="16" viewBox="0 0 15 16" fill="none" xmlns="http://www.w3.org/2000/svg">
<path d="M10.2734 7.73629C10.2734 9.28198 9.03174 10.535 7.50011 10.535C5.96849 10.535 4.72686 9.28198 4.72686 7.73629C4.72686 6.1906 5.96849 4.93757 7.50011 4.93757C9.03174 4.93757 10.2734 6.1906 10.2734 7.73629ZM10.2734 7.73629L10.2734 8.43597C10.2734 9.59524 11.2047 10.535 12.3534 10.535C13.5021 10.535 14.4333 9.59524 14.4333 8.43597V7.7363C14.4331 4.48482 12.2134 1.66197 9.07584 0.923028C5.93825 0.184085 2.70973 1.72381 1.28343 4.63932C-0.14287 7.55484 0.608972 11.0777 3.09809 13.1422C5.5872 15.2067 9.15755 15.2686 11.7155 13.2917" stroke="#616061" stroke-width="0.941892" stroke-linecap="round" stroke-linejoin="round"/>
</svg>
