<svg width="329" height="139" viewBox="0 0 329 139" fill="none" xmlns="http://www.w3.org/2000/svg">
<g clip-path="url(#clip0)">
<path d="M118.813 45.5898H0.0412598V84.5806H4.54032V94.7783L14.7377 84.5806H118.813V45.5898Z" fill="#F0F0F0"/>
<path d="M115.514 49.3867H3.34058V80.5792H115.514V49.3867Z" fill="white"/>
<path d="M67.2692 58.7939H13.2607V60.433H67.2692V58.7939Z" fill="#F0F0F0"/>
<path d="M107.393 64.4639H13.2607V66.1029H107.393V64.4639Z" fill="#F0F0F0"/>
<path d="M107.301 70.1338H13.2607V71.7728H107.301V70.1338Z" fill="#F0F0F0"/>
<path d="M199.555 133.661C199.555 133.661 200.121 121.798 211.727 123.177L199.555 133.661Z" fill="#F0F0F0"/>
<path d="M196.275 122.372C199.483 122.372 202.084 119.772 202.084 116.564C202.084 113.356 199.483 110.755 196.275 110.755C193.067 110.755 190.466 113.356 190.466 116.564C190.466 119.772 193.067 122.372 196.275 122.372Z" fill="#F0F0F0"/>
<path d="M196.97 126.345H195.33V137.823H196.97V126.345Z" fill="#F0F0F0"/>
<path d="M253.96 115.501C279.885 115.501 300.902 94.4843 300.902 68.5587C300.902 42.6331 279.885 21.6162 253.96 21.6162C228.034 21.6162 207.017 42.6331 207.017 68.5587C207.017 94.4843 228.034 115.501 253.96 115.501Z" fill="#3F3D56"/>
<path d="M224.407 72.3264C225.573 70.9307 227.031 69.808 228.678 69.0376C230.325 68.2671 232.122 67.8678 233.94 67.8678C235.759 67.8678 237.555 68.2671 239.203 69.0376C240.85 69.808 242.308 70.9307 243.474 72.3264C245.449 70.4409 246.821 68.0119 247.416 65.3468C248.01 62.6817 247.801 59.9 246.815 57.3536C245.829 54.8072 244.11 52.6105 241.875 51.0411C239.641 49.4717 236.991 48.6003 234.261 48.5369C231.531 48.4736 228.843 49.2212 226.538 50.6852C224.233 52.1492 222.414 54.2638 221.311 56.7617C220.208 59.2596 219.87 62.0286 220.34 64.7184C220.811 67.4083 222.068 69.8982 223.954 71.8734C224.101 72.0279 224.252 72.1789 224.407 72.3264Z" fill="white"/>
<path d="M261.684 72.3264C262.85 70.9307 264.308 69.808 265.956 69.0376C267.603 68.2672 269.399 67.8679 271.218 67.8679C273.037 67.8679 274.833 68.2672 276.48 69.0376C278.128 69.808 279.586 70.9307 280.752 72.3264C282.727 70.4409 284.098 68.0119 284.693 65.3468C285.288 62.6817 285.079 59.9 284.093 57.3536C283.107 54.8072 281.387 52.6105 279.153 51.0411C276.918 49.4717 274.268 48.6003 271.538 48.5369C268.808 48.4736 266.121 49.2212 263.816 50.6852C261.511 52.1492 259.692 54.2638 258.588 56.7617C257.485 59.2596 257.147 62.0286 257.618 64.7184C258.088 67.4083 259.346 69.8982 261.231 71.8734C261.379 72.0279 261.53 72.1789 261.684 72.3264Z" fill="white"/>
<path d="M229.231 62.3883C231.854 62.3883 233.98 60.262 233.98 57.639C233.98 55.016 231.854 52.8896 229.231 52.8896C226.608 52.8896 224.481 55.016 224.481 57.639C224.481 60.262 226.608 62.3883 229.231 62.3883Z" fill="#3F3D56"/>
<path d="M266.507 62.3883C269.13 62.3883 271.256 60.262 271.256 57.639C271.256 55.016 269.13 52.8896 266.507 52.8896C263.884 52.8896 261.758 55.016 261.758 57.639C261.758 60.262 263.884 62.3883 266.507 62.3883Z" fill="#3F3D56"/>
<path d="M220.134 85.8168C223.184 85.8168 225.656 83.3442 225.656 80.2941C225.656 77.2441 223.184 74.7715 220.134 74.7715C217.084 74.7715 214.611 77.2441 214.611 80.2941C214.611 83.3442 217.084 85.8168 220.134 85.8168Z" fill="#00B87C"/>
<path d="M283.644 85.8168C286.694 85.8168 289.167 83.3442 289.167 80.2941C289.167 77.2441 286.694 74.7715 283.644 74.7715C280.594 74.7715 278.121 77.2441 278.121 80.2941C278.121 83.3442 280.594 85.8168 283.644 85.8168Z" fill="#00B87C"/>
<path d="M251.889 69.249L247.747 87.1977L254.65 80.2947L251.889 69.249Z" fill="#00B87C"/>
<path d="M273.171 138.281L268.469 134.335L268.578 138.281H267.118L267.001 134.108L260.652 138.281H257.994L266.954 132.392L266.607 120.027L266.347 110.687L267.804 110.647L268.067 120.027L268.414 132.381L275.442 138.281H273.171Z" fill="#3F3D56"/>
<path d="M251.079 138.281L246.377 134.335L246.486 138.281H245.03L244.913 134.108L238.563 138.281H235.906L244.862 132.392L244.515 120.027L244.256 110.687L245.716 110.647L245.979 120.027L246.322 132.381L253.35 138.281H251.079Z" fill="#3F3D56"/>
<path d="M254.65 18.1642C253.362 18.1642 252.226 19.1648 251.466 20.7016C250.797 18.3907 249.39 16.7836 247.747 16.7836C247.635 16.7947 247.524 16.8133 247.415 16.8393C246.784 14.372 245.316 12.6416 243.605 12.6416C241.317 12.6416 239.463 15.7323 239.463 19.5449C239.463 23.3575 241.317 26.4482 243.605 26.4482C243.717 26.4371 243.827 26.4185 243.936 26.3925C244.568 28.8598 246.036 30.5902 247.747 30.5902C249.035 30.5902 250.171 29.5897 250.931 28.0528C251.6 30.3638 253.007 31.9708 254.65 31.9708C256.938 31.9708 258.792 28.8801 258.792 25.0675C258.792 21.255 256.938 18.1642 254.65 18.1642Z" fill="#3F3D56"/>
<path d="M209.701 70.0194L183.842 65.8251C182.539 65.6137 181.212 65.4019 179.905 65.5859C178.597 65.7699 177.289 66.4135 176.622 67.5531C176.302 68.1007 176.147 68.7293 176.175 69.3631C176.204 69.9969 176.414 70.609 176.782 71.1259C177.15 71.6427 177.66 72.0423 178.249 72.2766C178.839 72.5109 179.484 72.5699 180.106 72.4466C178.694 72.4008 177.211 72.3705 175.958 73.0229C174.706 73.6752 173.819 75.2599 174.429 76.5333C174.613 76.8847 174.861 77.1985 175.16 77.458C176.103 78.3029 177.265 78.8636 178.513 79.0753C179.761 79.2869 181.044 79.1409 182.212 78.654C181.26 80.0192 179.371 80.222 177.737 80.5381C176.103 80.8542 174.214 81.7785 174.153 83.4418C174.085 85.3106 176.309 86.3039 178.14 86.6844C187.917 88.6961 198.066 87.8689 207.388 84.3005C208.436 83.94 209.427 83.4337 210.334 82.7964C211.35 82.025 212.122 80.9771 212.558 79.7782C212.993 78.5793 213.075 77.2802 212.791 76.0364C212.508 74.7926 211.872 73.6568 210.96 72.765C210.048 71.8732 208.898 71.2631 207.648 71.0078" fill="#3F3D56"/>
<path d="M321.318 91.215C317.05 82.1916 310.29 74.5774 301.835 69.2711C300.917 68.6504 299.917 68.1621 298.863 67.8206C297.636 67.4723 296.334 67.4849 295.114 67.8571C293.894 68.2293 292.807 68.9452 291.983 69.9192C291.159 70.8931 290.633 72.0838 290.469 73.3488C290.304 74.6138 290.507 75.8994 291.054 77.0518L289.031 76.0051C293.094 83.7348 297.157 91.4644 301.219 99.1941C301.834 100.363 302.462 101.55 303.394 102.485C304.327 103.419 305.628 104.078 306.939 103.926C307.46 103.867 307.959 103.685 308.394 103.394C308.83 103.103 309.189 102.711 309.442 102.252C309.695 101.794 309.834 101.281 309.847 100.757C309.861 100.234 309.749 99.7143 309.52 99.2429C310.091 100.047 310.84 100.706 311.71 101.169C312.984 101.778 314.784 101.535 315.435 100.282C315.605 99.9239 315.707 99.5372 315.735 99.1418C315.843 97.8806 315.593 96.6144 315.012 95.4897C314.431 94.365 313.544 93.4278 312.452 92.7865C314.116 92.7269 315.413 94.1149 316.648 95.231C317.882 96.3471 319.756 97.3014 321.122 96.3504C322.657 95.2817 322.114 92.9071 321.318 91.215Z" fill="#3F3D56"/>
<path d="M21.2695 0H192.69V56.2742H186.196V70.9916L171.479 56.2742H21.2695V0Z" fill="#CACACA"/>
<path d="M187.928 5.47949H26.0312V50.4989H187.928V5.47949Z" fill="white"/>
<path d="M116.999 18.623H39.05V20.9886H116.999V18.623Z" fill="#00B87C"/>
<path d="M174.909 26.8066H39.05V29.1722H174.909V26.8066Z" fill="#00B87C"/>
<path d="M174.776 34.9902H39.05V37.3558H174.776V34.9902Z" fill="#00B87C"/>
<path d="M328.578 138.663H183.521C183.42 138.663 183.323 138.623 183.251 138.551C183.18 138.48 183.14 138.383 183.14 138.282C183.14 138.181 183.18 138.084 183.251 138.013C183.323 137.941 183.42 137.901 183.521 137.901H328.578C328.679 137.901 328.776 137.941 328.847 138.013C328.919 138.084 328.959 138.181 328.959 138.282C328.959 138.383 328.919 138.48 328.847 138.551C328.776 138.623 328.679 138.663 328.578 138.663Z" fill="#CACACA"/>
</g>
<defs>
<clipPath id="clip0">
<rect width="328.917" height="138.663" fill="white" transform="translate(0.0412598)"/>
</clipPath>
</defs>
</svg>
