<svg width="13" height="14" viewBox="0 0 13 14" fill="none" xmlns="http://www.w3.org/2000/svg">
<path fill-rule="evenodd" clip-rule="evenodd" d="M7.27683 0.0708216C7.43311 0.138661 7.52596 0.301408 7.50483 0.47046L6.93472 5.03127H12.1162C12.2651 5.03127 12.4006 5.11741 12.4637 5.25227C12.5269 5.38712 12.5064 5.54634 12.411 5.66073L6.17079 13.149C6.06172 13.2799 5.87943 13.3232 5.72315 13.2554C5.56687 13.1875 5.47403 13.0248 5.49516 12.8557L6.06526 8.29492H0.883779C0.734868 8.29492 0.599399 8.20877 0.536237 8.07392C0.473076 7.93907 0.493625 7.77985 0.588955 7.66545L6.82919 0.177172C6.93826 0.0462918 7.12055 0.00298219 7.27683 0.0708216ZM1.70315 7.52737H6.49999C6.61007 7.52737 6.71485 7.57464 6.7877 7.65716C6.86055 7.73968 6.89446 7.84951 6.8808 7.95874L6.41914 11.6521L11.2968 5.79882H6.49999C6.38991 5.79882 6.28513 5.75155 6.21228 5.66903C6.13943 5.58651 6.10553 5.47667 6.11918 5.36745L6.58084 1.67414L1.70315 7.52737Z" fill="#616061"/>
</svg>
