<svg width="38" height="43" viewBox="0 0 38 43" fill="none" xmlns="http://www.w3.org/2000/svg">
<path d="M14.9722 5.05012C14.823 6.1139 14.8567 7.25915 15.2596 8.30765C14.8825 8.37095 14.5202 8.46081 14.2033 8.58799C11.1677 9.8062 7.93855 12.9178 6.36572 19.209C5.95353 20.8578 5.23088 21.6311 4.28673 22.6359C3.37464 23.6066 2.29492 24.7558 1.26311 26.9914C0.121178 29.4656 1.09908 31.9482 2.91102 33.2382C4.74491 34.5439 7.42102 34.6298 9.62303 32.4278C11.8306 30.2202 13.7507 29.3125 15.4053 28.5311L15.4444 28.5126C16.6157 27.9595 17.72 27.438 18.6408 26.5234C19.1129 26.0546 19.5279 25.4926 19.8883 24.7878C19.6103 26.6966 18.5708 29.0232 15.8348 30.6769C13.4645 32.1095 12.0487 34.3244 11.239 36.3713C10.4323 38.4105 10.2054 40.3374 10.2568 41.2692C10.2718 41.5414 10.4969 41.7544 10.7695 41.7544H36.3018C36.5854 41.7544 36.8153 41.5245 36.8153 41.2409C36.8153 33.1834 36.2841 25.6084 34.2916 19.7637C32.3118 13.9561 28.8565 9.77962 23 8.60723L16.9318 1.52957C16.8211 1.40045 16.6536 1.33453 16.4846 1.35353C16.3156 1.37254 16.167 1.474 16.0877 1.62448C15.6174 2.51732 15.1547 3.7487 14.9722 5.05012Z" fill="#3A3A3A" stroke="#BFBFBF" stroke-width="1.02691" stroke-linejoin="round"/>
</svg>
