<svg width="46" height="42" viewBox="0 0 46 42" fill="none" xmlns="http://www.w3.org/2000/svg">
<path d="M9.58182 28.1127L13.1536 33.9575L9.9305 34.5277C9.68524 34.5711 9.50649 34.7843 9.50649 35.0333V40.1679C9.50649 40.4514 9.73637 40.6813 10.0199 40.6813L36.0876 40.6813C36.2238 40.6813 36.3544 40.6272 36.4507 40.5309C36.5469 40.4346 36.601 40.304 36.601 40.1679V35.0333C36.601 34.784 36.4219 34.5707 36.1763 34.5276L32.9036 33.9536L36.473 28.1127C36.4967 28.074 36.5151 28.0323 36.5278 27.9888L40.2271 15.3054C40.423 15.3354 40.6234 15.3509 40.8272 15.3509C43.0012 15.3509 44.7636 13.5885 44.7636 11.4145C44.7636 9.24041 43.0012 7.47799 40.8272 7.47799C38.6531 7.47799 36.8907 9.24041 36.8907 11.4145C36.8907 12.3491 37.2169 13.2081 37.7608 13.8831L31.5304 19.2944L30.181 8.37868C31.8749 7.93873 33.1254 6.39992 33.1254 4.56841C33.1254 2.39435 31.3629 0.631932 29.1889 0.631932C27.0148 0.631932 25.2524 2.39435 25.2524 4.56841C25.2524 6.05368 26.0748 7.34587 27.2878 8.01611L23.0274 17.673L18.767 8.01611C19.9801 7.34587 20.8025 6.05368 20.8025 4.56841C20.8025 2.39435 19.04 0.631932 16.866 0.631932C14.6919 0.631932 12.9295 2.39435 12.9295 4.56841C12.9295 6.39992 14.1799 7.93873 15.8738 8.37868L14.5245 19.2944L8.29406 13.8831C8.83799 13.2081 9.16419 12.3491 9.16419 11.4145C9.16419 9.24041 7.40177 7.47799 5.22771 7.47799C3.05365 7.47799 1.29123 9.24041 1.29123 11.4145C1.29123 13.5885 3.05365 15.3509 5.22771 15.3509C5.43149 15.3509 5.63189 15.3354 5.82773 15.3054L9.52703 27.9888C9.53974 28.0323 9.55816 28.074 9.58182 28.1127Z" fill="#3A3A3A" stroke="#BFBFBF" stroke-width="1.02691" stroke-linejoin="round"/>
</svg>
