<svg width="29" height="41" viewBox="0 0 29 41" fill="none" xmlns="http://www.w3.org/2000/svg">
<path d="M11.0036 9.19038C9.64757 10.2368 7.90083 11.925 6.4326 14.081C4.79464 16.4862 3.48209 19.5055 3.48209 22.8861C3.48209 28.3609 6.89958 31.2456 9.71999 32.4875L1.7338 33.9003C1.48854 33.9437 1.30979 34.1569 1.30979 34.4059V39.5405C1.30979 39.824 1.53967 40.0539 1.82324 40.0539L27.8909 40.0539C28.0271 40.0539 28.1577 39.9998 28.254 39.9035C28.3502 39.8073 28.4043 39.6767 28.4043 39.5405V34.4059C28.4043 34.1566 28.2252 33.9433 27.9796 33.9002L19.7151 32.4508C22.5176 31.1896 25.87 28.3076 25.87 22.8861C25.87 18.501 23.8296 14.6193 21.3786 11.8182C21.1992 11.6132 20.891 11.5839 20.6763 11.7515C19.2736 12.8462 18.0319 14.6364 17.1425 16.5757C16.3329 18.3409 15.7921 20.2799 15.7004 22.0106H13.9804C14.081 17.2549 15.5847 12.5838 18.7388 9.14876C18.7515 9.13499 18.7634 9.12054 18.7744 9.10548C19.3657 8.30068 19.7151 7.3063 19.7151 6.23181C19.7151 3.54877 17.5401 1.37375 14.8571 1.37375C12.174 1.37375 9.999 3.54877 9.999 6.23181C9.999 7.34496 10.3739 8.37127 11.0036 9.19038Z" fill="url(#paint0_linear)" stroke="url(#paint1_linear)" stroke-width="1.02691" stroke-linejoin="round"/>
<defs>
<linearGradient id="paint0_linear" x1="32.3393" y1="-25.0744" x2="-7.55778" y2="-21.3246" gradientUnits="userSpaceOnUse">
<stop stop-color="#FEFDFB"/>
<stop offset="0.307292" stop-color="#E4D2B4"/>
</linearGradient>
<linearGradient id="paint1_linear" x1="56.2666" y1="-37.1781" x2="47.4297" y2="50.0413" gradientUnits="userSpaceOnUse">
<stop stop-color="#3D3D3D" stop-opacity="0.92"/>
<stop offset="0.474524" stop-color="#232323" stop-opacity="0.959834"/>
<stop offset="1" stop-color="#040404"/>
</linearGradient>
</defs>
</svg>
