<svg width="30" height="40" viewBox="0 0 30 40" fill="none" xmlns="http://www.w3.org/2000/svg">
<path d="M11.1149 8.56513C9.7589 9.61153 8.01216 11.2998 6.54393 13.4557C4.90597 15.8609 3.59342 18.8802 3.59342 22.2609C3.59342 27.7356 7.01091 30.6203 9.83132 31.8623L1.84513 33.2751C1.59987 33.3185 1.42112 33.5316 1.42112 33.7807V38.9152C1.42112 39.1988 1.651 39.4287 1.93457 39.4287L28.0022 39.4287C28.1384 39.4287 28.269 39.3746 28.3653 39.2783C28.4616 39.182 28.5157 39.0514 28.5157 38.9152V33.7807C28.5157 33.5313 28.3365 33.318 28.0909 33.275L19.8265 31.8255C22.629 30.5643 25.9813 27.6824 25.9813 22.2609C25.9813 17.8758 23.9409 13.9941 21.4899 11.1929C21.3106 10.9879 21.0023 10.9587 20.7876 11.1263C19.3849 12.221 18.1432 14.0112 17.2538 15.9504C16.4442 17.7157 15.9035 19.6546 15.8117 21.3854H14.0917C14.1923 16.6297 15.696 11.9586 18.8502 8.52351C18.8628 8.50974 18.8747 8.4953 18.8857 8.48023C19.477 7.67543 19.8265 6.68106 19.8265 5.60657C19.8265 2.92353 17.6514 0.748509 14.9684 0.748509C12.2854 0.748509 10.1103 2.92353 10.1103 5.60657C10.1103 6.71971 10.4852 7.74602 11.1149 8.56513Z" fill="#3A3A3A" stroke="#BFBFBF" stroke-width="1.02691" stroke-linejoin="round"/>
</svg>
