<svg width="30" height="38" viewBox="0 0 30 38" fill="none" xmlns="http://www.w3.org/2000/svg">
<path d="M23.6997 15.4504C23.6997 15.2836 23.6186 15.1272 23.4823 15.031L20.5316 12.9481C21.7095 11.6529 22.4283 9.93086 22.4283 8.04159C22.4283 4.01306 19.1625 0.747289 15.134 0.747289C11.1055 0.747289 7.83969 4.01306 7.83969 8.04159C7.83969 10.0198 8.62764 11.8144 9.90553 13.1278L7.20943 15.031C7.07313 15.1272 6.99208 15.2836 6.99208 15.4504V19.9081C6.99208 20.1916 7.22196 20.4215 7.50553 20.4215H10.2937C9.97515 22.1369 8.82714 23.8897 7.30317 25.4921C5.52325 27.3635 3.37479 28.878 1.95489 29.6894L1.95489 29.6894L1.74135 29.8114C1.58137 29.9028 1.48264 30.073 1.48264 30.2572V36.8602C1.48264 37.1438 1.71252 37.3736 1.99609 37.3736H28.6957C28.9793 37.3736 29.2091 37.1438 29.2091 36.8602V30.2572C29.2091 30.073 29.1104 29.9028 28.9504 29.8114L28.7369 29.6894C27.317 28.878 25.1685 27.3635 23.3886 25.4921C21.8646 23.8897 20.7166 22.1369 20.3981 20.4215H23.1862C23.4698 20.4215 23.6997 20.1916 23.6997 19.9081V15.4504Z" fill="#3A3A3A" stroke="#BFBFBF" stroke-width="1.02691" stroke-linejoin="round"/>
</svg>
