<svg width="38" height="42" viewBox="0 0 38 42" fill="none" xmlns="http://www.w3.org/2000/svg">
<path d="M15.189 4.34822C15.0398 5.412 15.0735 6.55724 15.4764 7.60575C15.0993 7.66905 14.737 7.75891 14.4201 7.88609C11.3845 9.10429 8.15534 12.2158 6.58252 18.5071C6.17032 20.1559 5.44767 20.9292 4.50353 21.934C3.59144 22.9047 2.51172 24.0539 1.47991 26.2895C0.337974 28.7637 1.31588 31.2463 3.12782 32.5363C4.96171 33.842 7.63782 33.9279 9.83983 31.7259C12.0474 29.5183 13.9675 28.6106 15.6221 27.8292L15.6612 27.8107C16.8325 27.2576 17.9368 26.7361 18.8576 25.8215C19.3297 25.3527 19.7447 24.7907 20.1051 24.0859C19.8271 25.9946 18.7876 28.3213 16.0516 29.975C13.6812 31.4076 12.2655 33.6225 11.4558 35.6694C10.6491 37.7086 10.4222 39.6355 10.4736 40.5673C10.4886 40.8395 10.7137 41.0525 10.9863 41.0525H36.5186C36.8022 41.0525 37.0321 40.8226 37.0321 40.539C37.0321 32.4815 36.5009 24.9064 34.5084 19.0618C32.5286 13.2542 29.0733 9.07772 23.2168 7.90532L17.1486 0.827661C17.0379 0.698543 16.8704 0.632622 16.7014 0.651627C16.5324 0.670632 16.3838 0.772096 16.3045 0.922575C15.8342 1.81542 15.3715 3.0468 15.189 4.34822Z" fill="url(#paint0_linear)" stroke="url(#paint1_linear)" stroke-width="1.02691" stroke-linejoin="round"/>
<defs>
<linearGradient id="paint0_linear" x1="42.4939" y1="-27.0341" x2="-10.7938" y2="-20.6012" gradientUnits="userSpaceOnUse">
<stop stop-color="#FEFDFB"/>
<stop offset="0.307292" stop-color="#E4D2B4"/>
</linearGradient>
<linearGradient id="paint1_linear" x1="74.6336" y1="-39.6919" x2="67.4097" y2="51.8871" gradientUnits="userSpaceOnUse">
<stop stop-color="#3D3D3D" stop-opacity="0.92"/>
<stop offset="0.474524" stop-color="#232323" stop-opacity="0.959834"/>
<stop offset="1" stop-color="#040404"/>
</linearGradient>
</defs>
</svg>
