<svg width="46" height="42" viewBox="0 0 46 42" fill="none" xmlns="http://www.w3.org/2000/svg">
<path d="M9.783 28.4847L13.3548 34.3295L10.1317 34.8997C9.88641 34.9431 9.70766 35.1562 9.70766 35.4053V40.5398C9.70766 40.8234 9.93754 41.0533 10.2211 41.0533L36.2888 41.0533C36.4249 41.0533 36.5555 40.9992 36.6518 40.9029C36.7481 40.8066 36.8022 40.676 36.8022 40.5398V35.4053C36.8022 35.1559 36.6231 34.9426 36.3775 34.8995L33.1048 34.3256L36.6742 28.4847C36.6979 28.446 36.7163 28.4043 36.729 28.3607L40.4283 15.6774C40.6242 15.7074 40.8246 15.7229 41.0283 15.7229C43.2024 15.7229 44.9648 13.9605 44.9648 11.7864C44.9648 9.61236 43.2024 7.84994 41.0283 7.84994C38.8543 7.84994 37.0919 9.61236 37.0919 11.7864C37.0919 12.7211 37.4181 13.5801 37.962 14.255L31.7316 19.6663L30.3822 8.75063C32.0761 8.31067 33.3265 6.77187 33.3265 4.94036C33.3265 2.7663 31.5641 1.00388 29.39 1.00388C27.216 1.00388 25.4536 2.7663 25.4536 4.94036C25.4536 6.42563 26.276 7.71781 27.489 8.38806L23.2286 18.045L18.9682 8.38806C20.1812 7.71781 21.0036 6.42563 21.0036 4.94036C21.0036 2.7663 19.2412 1.00388 17.0672 1.00388C14.8931 1.00388 13.1307 2.7663 13.1307 4.94036C13.1307 6.77186 14.3811 8.31067 16.075 8.75063L14.7256 19.6663L8.49524 14.255C9.03916 13.5801 9.36536 12.7211 9.36536 11.7864C9.36536 9.61236 7.60294 7.84994 5.42888 7.84994C3.25483 7.84994 1.49241 9.61236 1.49241 11.7864C1.49241 13.9605 3.25483 15.7229 5.42888 15.7229C5.63266 15.7229 5.83306 15.7074 6.0289 15.6774L9.7282 28.3607C9.74091 28.4043 9.75933 28.446 9.783 28.4847Z" fill="url(#paint0_linear)" stroke="url(#paint1_linear)" stroke-width="1.02691" stroke-linejoin="round"/>
<defs>
<linearGradient id="paint0_linear" x1="51.6946" y1="-26.4247" x2="-12.4443" y2="-16.9534" gradientUnits="userSpaceOnUse">
<stop stop-color="#FEFDFB"/>
<stop offset="0.307292" stop-color="#E4D2B4"/>
</linearGradient>
<linearGradient id="paint1_linear" x1="90.655" y1="-38.9685" x2="84.7906" y2="51.9722" gradientUnits="userSpaceOnUse">
<stop stop-color="#3D3D3D" stop-opacity="0.92"/>
<stop offset="0.474524" stop-color="#232323" stop-opacity="0.959834"/>
<stop offset="1" stop-color="#040404"/>
</linearGradient>
</defs>
</svg>
