<svg width="30" height="39" viewBox="0 0 30 39" fill="none" xmlns="http://www.w3.org/2000/svg">
<path d="M1.85254 0.743871C1.56897 0.743871 1.33909 0.973752 1.33909 1.25732V7.41877C1.33909 7.58038 1.41518 7.73256 1.54447 7.82953L6.78668 11.7612L5.44986 23.7926C5.43373 23.9377 5.48018 24.0829 5.57758 24.1917C5.67498 24.3005 5.81412 24.3627 5.96017 24.3627H24.4445C24.5905 24.3627 24.7297 24.3005 24.8271 24.1917C24.9245 24.0829 24.9709 23.9377 24.9548 23.7926L23.618 11.7612L28.8602 7.82953C28.9895 7.73256 29.0656 7.58038 29.0656 7.41877V1.25732C29.0656 0.973752 28.8357 0.743871 28.5521 0.743871H21.7061C21.4225 0.743871 21.1926 0.973752 21.1926 1.25732V4.8515H19.4811V1.25732C19.4811 0.973752 19.2512 0.743871 18.9677 0.743871H11.437C11.1534 0.743871 10.9236 0.973752 10.9236 1.25732V4.8515H9.21204V1.25732C9.21204 0.973752 8.98216 0.743871 8.69859 0.743871H1.85254ZM5.96017 26.0743C5.79855 26.0743 5.64637 26.1503 5.54941 26.2796L1.44178 31.7565C1.37512 31.8454 1.33909 31.9534 1.33909 32.0645V37.5414C1.33909 37.825 1.56897 38.0548 1.85254 38.0548H28.5521C28.8357 38.0548 29.0656 37.825 29.0656 37.5414V32.0645C29.0656 31.9535 29.0295 31.8454 28.9629 31.7565L24.8553 26.2796C24.7583 26.1503 24.6061 26.0743 24.4445 26.0743H5.96017Z" fill="url(#paint0_linear)" stroke="url(#paint1_linear)" stroke-width="1.02691" stroke-linejoin="round"/>
<defs>
<linearGradient id="paint0_linear" x1="33.1084" y1="-24.7239" x2="-7.70953" y2="-20.6462" gradientUnits="userSpaceOnUse">
<stop stop-color="#FEFDFB"/>
<stop offset="0.307292" stop-color="#E4D2B4"/>
</linearGradient>
<linearGradient id="paint1_linear" x1="57.6157" y1="-36.3874" x2="49.5947" y2="47.7586" gradientUnits="userSpaceOnUse">
<stop stop-color="#3D3D3D" stop-opacity="0.92"/>
<stop offset="0.474524" stop-color="#232323" stop-opacity="0.959834"/>
<stop offset="1" stop-color="#040404"/>
</linearGradient>
</defs>
</svg>
