<?xml version="1.0" encoding="iso-8859-1"?>
<!-- Generator: Adobe Illustrator 19.0.0, SVG Export Plug-In . SVG Version: 6.00 Build 0)  -->
<svg version="1.1" id="Capa_1" xmlns="http://www.w3.org/2000/svg" xmlns:xlink="http://www.w3.org/1999/xlink" x="0px" y="0px"
	 viewBox="0 0 449.279 449.279" style="enable-background:new 0 0 449.279 449.279;" xml:space="preserve">
<path id="XMLID_687_" d="M141.303,388.047c1.438-3.317,2.234-6.974,2.234-10.813c0-15.044-12.239-27.284-27.283-27.284h-1.875
	c-4.689-8.688-7.063-17.687-7.063-26.814c0-9.126,2.373-18.125,7.062-26.812h1.876c15.044,0,27.283-12.24,27.283-27.285
	c0-14.548-11.445-26.474-25.805-27.244l9.029-56.346c0.96-5.994-0.812-11.995-4.991-16.896c-5.093-5.975-13.391-9.686-21.654-9.686
	H88.789v-17.396c0-4.971-4.029-9-9-9s-9,4.029-9,9v17.396H59.462c-8.266,0-16.563,3.712-21.657,9.687
	c-4.179,4.902-5.95,10.902-4.989,16.895l9.029,56.346c-14.358,0.772-25.804,12.697-25.804,27.245
	c0,15.044,12.239,27.284,27.284,27.284h0.168c4.689,8.688,7.062,17.686,7.062,26.812c0,9.127-2.372,18.126-7.062,26.814h-0.168
	c-15.045,0-27.284,12.24-27.284,27.285c0,3.838,0.797,7.495,2.233,10.811C7.644,391.776,0,401.914,0,413.805
	c0,15.044,12.239,27.283,27.283,27.283h105.009c15.044,0,27.283-12.239,27.283-27.286
	C159.575,401.914,151.933,391.777,141.303,388.047z M59.462,176.867h40.654c8.872-0.228,8.915,5.464,8.872,5.734l-9.479,59.155
	h-39.44l-9.479-59.155C50.545,182.331,51.64,176.867,59.462,176.867z M43.325,278.325c-5.119,0-9.284-4.165-9.284-9.285
	c0-5.119,4.165-9.284,9.284-9.284h72.929c5.119,0,9.283,4.165,9.283,9.285c0,5.119-4.164,9.284-9.283,9.284H43.325z M94.53,349.951
	H63.341c3.465-8.701,5.214-17.675,5.214-26.814c0-9.139-1.749-18.111-5.214-26.812H94.53c-3.466,8.701-5.214,17.673-5.214,26.812
	C89.316,332.276,91.065,341.25,94.53,349.951z M43.325,367.951h5.165c0.097,0.002,0.195,0.002,0.29,0h60.311
	c0.097,0.002,0.193,0.002,0.292,0h6.871c5.119,0,9.283,4.166,9.283,9.285c0,5.119-4.164,9.283-9.283,9.283H43.325
	c-5.119,0-9.284-4.165-9.284-9.284S38.206,367.951,43.325,367.951z M132.292,423.088H27.283c-5.119,0-9.283-4.165-9.283-9.286
	c0-5.119,4.164-9.284,9.283-9.284h105.009c5.119,0,9.283,4.165,9.283,9.286C141.575,418.923,137.411,423.088,132.292,423.088z
	 M172.457,167.118c3.515,3.515,3.515,9.213-0.001,12.728l-21.651,21.651c-1.758,1.757-4.062,2.636-6.364,2.636
	c-2.304,0-4.606-0.878-6.364-2.636c-3.515-3.515-3.515-9.213,0-12.728l21.652-21.651
	C163.244,163.603,168.941,163.603,172.457,167.118z M350.287,214.223l47.104-47.103c3.517-3.515,9.214-3.515,12.729,0
	c3.515,3.515,3.515,9.213,0,12.728l-47.104,47.104c-1.758,1.757-4.062,2.636-6.364,2.636c-2.304,0-4.606-0.878-6.364-2.636
	C346.772,223.436,346.772,217.737,350.287,214.223z M344.079,193.371c-3.515-3.515-3.515-9.213,0-12.728l18.977-18.977
	c3.515-3.514,9.212-3.516,12.729,0c3.515,3.515,3.515,9.213,0,12.728l-18.977,18.977c-1.758,1.757-4.061,2.636-6.364,2.636
	S345.837,195.128,344.079,193.371z M440.279,8.191H79.789c-4.971,0-9,4.029-9,9v87.369c0,4.971,4.029,9,9,9s9-4.029,9-9V26.191
	h102.164v102.163h-59.666c-4.971,0-9,4.029-9,9s4.029,9,9,9h59.666v102.162h-22.599c-4.971,0-9,4.029-9,9s4.029,9,9,9h22.599V368.68
	h-23.911c-4.971,0-9,4.029-9,9s4.029,9,9,9h273.237c4.971,0,9-4.029,9-9V17.191C449.279,12.221,445.25,8.191,440.279,8.191z
	 M311.116,368.68H208.953V266.517h102.163V368.68z M311.116,248.517H208.953V146.354h102.163V248.517z M311.116,128.354H208.953
	V26.191h102.163V128.354z M431.279,368.68H329.116V266.517h102.163V368.68z M431.279,248.517H329.116V146.354h102.163V248.517z
	 M431.279,128.354H329.116V26.191h102.163V128.354z M296.159,323.914c3.515,3.515,3.515,9.213-0.001,12.728l-18.979,18.977
	c-1.757,1.757-4.061,2.636-6.363,2.636c-2.304,0-4.606-0.878-6.364-2.636c-3.515-3.515-3.515-9.213,0.001-12.728l18.979-18.977
	C286.946,320.399,292.645,320.399,296.159,323.914z M296.159,81.326c3.515,3.515,3.515,9.213,0,12.728l-18.979,18.978
	c-1.758,1.757-4.062,2.636-6.364,2.636c-2.304,0-4.606-0.878-6.364-2.636c-3.515-3.515-3.515-9.213,0.001-12.728l18.978-18.978
	C286.947,77.811,292.645,77.811,296.159,81.326z M416.327,200.698c3.516,3.515,3.516,9.213,0.001,12.728l-18.976,18.978
	c-1.757,1.757-4.061,2.636-6.364,2.636s-4.606-0.878-6.363-2.636c-3.516-3.515-3.516-9.213-0.001-12.728l18.976-18.978
	C407.113,197.184,412.813,197.184,416.327,200.698z M230.116,94.85l47.104-47.104c3.517-3.516,9.214-3.515,12.729,0
	s3.515,9.213,0,12.728l-47.104,47.104c-1.758,1.757-4.062,2.636-6.364,2.636c-2.304,0-4.606-0.878-6.364-2.636
	C226.602,104.063,226.602,98.364,230.116,94.85z M230.116,337.438l47.104-47.104c3.517-3.515,9.214-3.514,12.729,0
	s3.515,9.213,0,12.728l-47.104,47.104c-1.758,1.757-4.062,2.636-6.364,2.636c-2.304,0-4.606-0.878-6.364-2.636
	C226.602,346.651,226.602,340.953,230.116,337.438z M223.908,73.998c-3.515-3.515-3.515-9.213,0-12.728l18.978-18.978
	c3.516-3.515,9.213-3.515,12.729,0c3.515,3.515,3.515,9.213,0,12.728l-18.978,18.978c-1.758,1.757-4.061,2.636-6.364,2.636
	S225.666,75.755,223.908,73.998z M178.664,200.698c3.515,3.515,3.515,9.213,0,12.728l-18.977,18.978
	c-1.758,1.757-4.061,2.636-6.364,2.636s-4.606-0.878-6.364-2.636c-3.515-3.515-3.515-9.213,0-12.728l18.977-18.978
	C169.451,197.184,175.148,197.184,178.664,200.698z M223.908,316.586c-3.515-3.515-3.515-9.213,0-12.728l18.978-18.977
	c3.516-3.515,9.213-3.514,12.729,0c3.515,3.515,3.515,9.213,0,12.728l-18.978,18.977c-1.758,1.757-4.062,2.636-6.364,2.636
	C227.969,319.222,225.666,318.344,223.908,316.586z"/>
<g>
</g>
<g>
</g>
<g>
</g>
<g>
</g>
<g>
</g>
<g>
</g>
<g>
</g>
<g>
</g>
<g>
</g>
<g>
</g>
<g>
</g>
<g>
</g>
<g>
</g>
<g>
</g>
<g>
</g>
</svg>
