<svg width="41" height="43" viewBox="0 0 41 43" fill="none" xmlns="http://www.w3.org/2000/svg">
<path d="M18.6303 0.949925C18.3529 0.949925 18.1257 1.17015 18.1171 1.44734L18.0256 4.37295H14.5226C14.2391 4.37295 14.0092 4.60283 14.0092 4.8864V8.99403C14.0092 9.2776 14.2391 9.50749 14.5226 9.50749H17.8603L17.7425 12.4192C15.9346 10.6768 13.7712 9.34181 11.544 8.77754C9.04639 8.14477 6.46046 8.48335 4.26716 10.3111C-0.135467 13.98 -0.0374575 22.2375 5.82195 26.9549L6.14395 26.5549L5.82196 26.9549C7.42855 28.2483 8.90188 29.481 9.96083 30.8272C10.9185 32.0446 11.5166 33.3295 11.5644 34.8087L6.25263 35.5271C5.99797 35.5615 5.80799 35.7789 5.80799 36.0359V41.1705C5.80799 41.454 6.03787 41.6839 6.32144 41.6839H35.0467C35.3303 41.6839 35.5602 41.454 35.5602 41.1705V36.0359C35.5602 35.7789 35.3702 35.5615 35.1155 35.5271L29.8038 34.8087C29.8516 33.3295 30.4497 32.0446 31.4073 30.8272C32.4663 29.481 33.9396 28.2484 35.5462 26.9549C41.4056 22.2375 41.5036 13.98 37.101 10.3111C34.9077 8.48335 32.3218 8.14477 29.8242 8.77754C27.597 9.34181 25.4336 10.6768 23.6257 12.4192L23.5079 9.50749H26.8455C27.1291 9.50749 27.359 9.2776 27.359 8.99403V4.8864C27.359 4.60283 27.1291 4.37295 26.8455 4.37295H23.3425L23.2511 1.44734C23.2424 1.17015 23.0152 0.949925 22.7379 0.949925H18.6303ZM14.3227 17.4584C16.5458 21.0999 17.0158 25.325 17.0811 27.5999C16.862 27.5441 16.592 27.4594 16.2765 27.3406C15.6437 27.1023 14.8791 26.7468 14.0722 26.2843C12.4528 25.3563 10.7039 24.0214 9.50484 22.3857C8.65525 21.2268 8.11798 19.7816 7.97735 18.4695C7.83408 17.1329 8.11133 16.069 8.70813 15.522C9.30249 14.9772 10.2975 14.8252 11.4044 15.162C12.4977 15.4947 13.6057 16.2842 14.3227 17.4584ZM24.2871 27.5999C24.3524 25.325 24.8224 21.0999 27.0455 17.4584C27.7624 16.2842 28.8705 15.4947 29.9637 15.162C31.0706 14.8252 32.0657 14.9772 32.66 15.522C33.2568 16.069 33.5341 17.1329 33.3908 18.4695C33.2502 19.7816 32.7129 21.2268 31.8633 22.3857C30.6642 24.0214 28.9153 25.3563 27.2959 26.2843C26.489 26.7468 25.7245 27.1023 25.0916 27.3406C24.7762 27.4594 24.5062 27.5441 24.2871 27.5999Z" fill="#3A3A3A" stroke="#BFBFBF" stroke-width="1.02691" stroke-linejoin="round"/>
</svg>
