<svg width="29" height="39" viewBox="0 0 29 39" fill="none" xmlns="http://www.w3.org/2000/svg">
<path d="M0.995117 0.61858C0.754868 0.61858 0.560108 0.81334 0.560108 1.05359V7.21503C0.560108 7.35195 0.624574 7.48089 0.734112 7.56304L6.01217 11.5216L4.6704 23.5975C4.65673 23.7205 4.69609 23.8435 4.77861 23.9357C4.86113 24.0279 4.97901 24.0806 5.10275 24.0806H23.5871C23.7108 24.0806 23.8287 24.0279 23.9112 23.9357C23.9937 23.8435 24.0331 23.7205 24.0194 23.5975L22.6777 11.5216L27.9557 7.56304C28.0652 7.48089 28.1297 7.35195 28.1297 7.21503V1.05359C28.1297 0.81334 27.935 0.61858 27.6947 0.61858H20.8487C20.6084 0.61858 20.4137 0.81334 20.4137 1.05359V4.72621H18.5452V1.05359C18.5452 0.81334 18.3505 0.61858 18.1102 0.61858H10.5796C10.3393 0.61858 10.1446 0.81334 10.1446 1.05359V4.72621H8.27618V1.05359C8.27618 0.81334 8.08141 0.61858 7.84117 0.61858H0.995117ZM5.10275 25.949C4.96582 25.949 4.83689 26.0134 4.75474 26.123L0.64711 31.5998C0.590636 31.6751 0.560108 31.7667 0.560108 31.8608V37.3376C0.560108 37.5779 0.754868 37.7727 0.995117 37.7727H27.6947C27.935 37.7727 28.1297 37.5779 28.1297 37.3376V31.8608C28.1297 31.7667 28.0992 31.6751 28.0427 31.5998L23.9351 26.123C23.8529 26.0134 23.724 25.949 23.5871 25.949H5.10275Z" fill="#3A3A3A" stroke="#BFBFBF" stroke-width="0.870019" stroke-linejoin="round"/>
</svg>
