<svg width="41" height="43" viewBox="0 0 41 43" fill="none" xmlns="http://www.w3.org/2000/svg">
<path d="M18.6303 1.32102C18.3529 1.32102 18.1257 1.54124 18.1171 1.81844L18.0256 4.74404H14.5226C14.2391 4.74404 14.0092 4.97392 14.0092 5.2575V9.36513C14.0092 9.6487 14.2391 9.87858 14.5226 9.87858H17.8603L17.7425 12.7903C15.9346 11.0479 13.7712 9.7129 11.544 9.14863C9.04639 8.51587 6.46046 8.85445 4.26716 10.6822C-0.135467 14.351 -0.0374575 22.6086 5.82195 27.326L6.14395 26.926L5.82196 27.326C7.42855 28.6194 8.90188 29.8521 9.96083 31.1983C10.9185 32.4157 11.5166 33.7006 11.5644 35.1798L6.25263 35.8982C5.99797 35.9326 5.80799 36.15 5.80799 36.407V41.5415C5.80799 41.8251 6.03787 42.055 6.32144 42.055H35.0467C35.3303 42.055 35.5602 41.8251 35.5602 41.5415V36.407C35.5602 36.15 35.3702 35.9326 35.1155 35.8982L29.8038 35.1798C29.8516 33.7006 30.4497 32.4157 31.4073 31.1983C32.4663 29.8521 33.9396 28.6194 35.5462 27.326C41.4056 22.6086 41.5036 14.351 37.101 10.6822C34.9077 8.85445 32.3218 8.51587 29.8242 9.14863C27.597 9.7129 25.4336 11.0479 23.6257 12.7903L23.5079 9.87858H26.8455C27.1291 9.87858 27.359 9.6487 27.359 9.36513V5.2575C27.359 4.97392 27.1291 4.74404 26.8455 4.74404H23.3425L23.2511 1.81844C23.2424 1.54124 23.0152 1.32102 22.7379 1.32102H18.6303ZM14.3227 17.8295C16.5458 21.471 17.0158 25.6961 17.0811 27.971C16.862 27.9152 16.592 27.8305 16.2765 27.7117C15.6437 27.4734 14.8791 27.1179 14.0722 26.6554C12.4528 25.7274 10.7039 24.3925 9.50484 22.7568C8.65525 21.5979 8.11798 20.1527 7.97735 18.8406C7.83408 17.504 8.11133 16.4401 8.70813 15.8931C9.30249 15.3483 10.2975 15.1963 11.4044 15.5331C12.4977 15.8658 13.6057 16.6552 14.3227 17.8295ZM24.2871 27.971C24.3524 25.6961 24.8224 21.471 27.0455 17.8295C27.7624 16.6552 28.8705 15.8658 29.9637 15.5331C31.0706 15.1963 32.0657 15.3483 32.66 15.8931C33.2568 16.4401 33.5341 17.504 33.3908 18.8406C33.2502 20.1527 32.7129 21.5979 31.8633 22.7568C30.6642 24.3925 28.9153 25.7274 27.2959 26.6554C26.489 27.1179 25.7245 27.4734 25.0916 27.7117C24.7762 27.8305 24.5062 27.9152 24.2871 27.971Z" fill="url(#paint0_linear)" stroke="url(#paint1_linear)" stroke-width="1.02691" stroke-linejoin="round"/>
<defs>
<linearGradient id="paint0_linear" x1="46.1668" y1="-26.5978" x2="-11.5285" y2="-19.1024" gradientUnits="userSpaceOnUse">
<stop stop-color="#FEFDFB"/>
<stop offset="0.307292" stop-color="#E4D2B4"/>
</linearGradient>
<linearGradient id="paint1_linear" x1="81.044" y1="-39.3616" x2="74.2693" y2="53.0628" gradientUnits="userSpaceOnUse">
<stop stop-color="#3D3D3D" stop-opacity="0.92"/>
<stop offset="0.474524" stop-color="#232323" stop-opacity="0.959834"/>
<stop offset="1" stop-color="#040404"/>
</linearGradient>
</defs>
</svg>
