<svg width="30" height="39" viewBox="0 0 30 39" fill="none" xmlns="http://www.w3.org/2000/svg">
<path d="M23.6333 16.02C23.6333 15.8532 23.5522 15.6968 23.4159 15.6006L20.4652 13.5176C21.6431 12.2224 22.3619 10.5004 22.3619 8.61117C22.3619 4.58264 19.0961 1.31687 15.0676 1.31687C11.039 1.31687 7.77328 4.58264 7.77328 8.61117C7.77328 10.5893 8.56123 12.3839 9.83913 13.6974L7.14303 15.6005C7.00673 15.6968 6.92567 15.8532 6.92567 16.02V20.4777C6.92567 20.7612 7.15555 20.9911 7.43913 20.9911H10.2273C9.90874 22.7064 8.76074 24.4593 7.23676 26.0616C5.45685 27.9331 3.30839 29.4476 1.88848 30.259L1.88848 30.259L1.67494 30.381C1.51496 30.4724 1.41623 30.6425 1.41623 30.8268V37.4298C1.41623 37.7133 1.64611 37.9432 1.92969 37.9432H28.6293C28.9128 37.9432 29.1427 37.7133 29.1427 37.4298V30.8268C29.1427 30.6425 29.044 30.4724 28.884 30.381L28.6705 30.259C27.2506 29.4476 25.1021 27.9331 23.3222 26.0616C21.7982 24.4593 20.6502 22.7064 20.3317 20.9911H23.1198C23.4034 20.9911 23.6333 20.7612 23.6333 20.4777V16.02Z" fill="url(#paint0_linear)" stroke="url(#paint1_linear)" stroke-width="1.02691" stroke-linejoin="round"/>
<defs>
<linearGradient id="paint0_linear" x1="33.1855" y1="-23.6607" x2="-7.61673" y2="-19.5062" gradientUnits="userSpaceOnUse">
<stop stop-color="#FEFDFB"/>
<stop offset="0.307292" stop-color="#E4D2B4"/>
</linearGradient>
<linearGradient id="paint1_linear" x1="57.6929" y1="-35.1041" x2="49.9691" y2="47.482" gradientUnits="userSpaceOnUse">
<stop stop-color="#3D3D3D" stop-opacity="0.92"/>
<stop offset="0.474524" stop-color="#232323" stop-opacity="0.959834"/>
<stop offset="1" stop-color="#040404"/>
</linearGradient>
</defs>
</svg>
