<svg width="18" height="19" viewBox="0 0 18 19" fill="none" xmlns="http://www.w3.org/2000/svg">
<path fill-rule="evenodd" clip-rule="evenodd" d="M5.34065 13.006C5.41207 12.9703 5.49082 12.9517 5.57066 12.9517H12.4284C12.5082 12.9517 12.587 12.9703 12.6584 13.006L14.7157 14.0346C14.8899 14.1217 15 14.2998 15 14.4946V15.8662C15 16.1502 14.7697 16.3805 14.4857 16.3805H3.51335C3.2293 16.3805 2.99902 16.1502 2.99902 15.8662V14.4946C2.99902 14.2998 3.10909 14.1217 3.28334 14.0346L5.34065 13.006ZM5.69208 13.9803L4.02768 14.8125V15.3519H13.9714V14.8125L12.307 13.9803H5.69208Z" fill="white"/>
<path fill-rule="evenodd" clip-rule="evenodd" d="M5.05566 7.29362C5.05566 7.00957 5.28594 6.7793 5.56999 6.7793H12.4277C12.7118 6.7793 12.942 7.00957 12.942 7.29362C12.942 7.57768 12.7118 7.80795 12.4277 7.80795H5.56999C5.28594 7.80795 5.05566 7.57768 5.05566 7.29362Z" fill="white"/>
<path fill-rule="evenodd" clip-rule="evenodd" d="M7.86159 6.80008C8.13424 6.87975 8.29068 7.16537 8.211 7.43802L6.59988 12.9514H11.3995L9.78842 7.43802C9.70875 7.16537 9.86519 6.87975 10.1378 6.80008C10.4105 6.7204 10.6961 6.87684 10.7758 7.14949L12.5794 13.3214C12.6248 13.4769 12.5943 13.6446 12.4972 13.7742C12.4001 13.9038 12.2476 13.98 12.0857 13.98H5.91375C5.75181 13.98 5.59933 13.9038 5.5022 13.7742C5.40508 13.6446 5.37464 13.4769 5.42007 13.3214L7.22364 7.14949C7.30332 6.87684 7.58893 6.7204 7.86159 6.80008Z" fill="white"/>
<path fill-rule="evenodd" clip-rule="evenodd" d="M7.0046 2.31738C7.57567 1.87529 8.27747 1.63551 8.99966 1.63574C9.72185 1.63551 10.4236 1.87529 10.9947 2.31738C11.5658 2.75951 11.9738 3.37891 12.1545 4.07821C12.334 4.77298 12.2791 5.50745 11.9984 6.1676C11.8738 6.50075 11.4954 7.22171 10.8512 7.70481L10.234 6.88189C10.6777 6.54912 10.9614 6.00931 11.0372 5.80116L11.0422 5.7874L11.048 5.77395C11.2433 5.32 11.2822 4.81402 11.1586 4.33556C11.0349 3.8571 10.7558 3.43329 10.365 3.13078C9.97426 2.82827 9.49403 2.66421 8.99985 2.6644H8.99946C8.50529 2.66421 8.02506 2.82827 7.63429 3.13078C7.24353 3.43329 6.96438 3.8571 6.84075 4.33556C6.71711 4.81402 6.756 5.32 6.9513 5.77395C7.1466 6.2279 7.48723 6.60407 7.91963 6.84331L7.42164 7.74339C6.78966 7.39373 6.29181 6.84394 6.00638 6.18048C5.72094 5.51701 5.66411 4.7775 5.8448 4.07821C6.0255 3.37891 6.43348 2.75951 7.0046 2.31738ZM8.99966 1.63574C8.99972 1.63574 8.99979 1.63574 8.99985 1.63574L8.99966 2.15007L8.99946 1.63574C8.99953 1.63574 8.99959 1.63574 8.99966 1.63574Z" fill="white"/>
</svg>
