<svg width="17" height="17" viewBox="0 0 17 17" fill="none" xmlns="http://www.w3.org/2000/svg">
<path fill-rule="evenodd" clip-rule="evenodd" d="M3.87988 3.99674C3.87988 3.70029 4.12021 3.45996 4.41666 3.45996H9.08333C10.6684 3.45996 11.9534 4.74495 11.9534 6.33007C11.9534 7.91519 10.6684 9.20019 9.08333 9.20019H4.41666C4.12021 9.20019 3.87988 8.95986 3.87988 8.66341V3.99674ZM4.95344 4.53352V8.12663H9.08333C10.0755 8.12663 10.8799 7.32228 10.8799 6.33007C10.8799 5.33786 10.0755 4.53352 9.08333 4.53352H4.95344Z" fill="#616061"/>
<path fill-rule="evenodd" clip-rule="evenodd" d="M3.87988 8.66276C3.87988 8.3663 4.12021 8.12598 4.41666 8.12598H9.66666C11.2518 8.12598 12.5368 9.41097 12.5368 10.9961C12.5368 12.5812 11.2518 13.8662 9.66666 13.8662H4.41666C4.12021 13.8662 3.87988 13.6259 3.87988 13.3294V8.66276ZM4.95344 9.19954V12.7926H9.66666C10.6589 12.7926 11.4632 11.9883 11.4632 10.9961C11.4632 10.0039 10.6589 9.19954 9.66666 9.19954H4.95344Z" fill="#616061"/>
</svg>
