<svg width="17" height="17" viewBox="0 0 17 17" fill="none" xmlns="http://www.w3.org/2000/svg">
<path fill-rule="evenodd" clip-rule="evenodd" d="M8.94913 2.78756C10.4659 1.26948 12.8768 1.29119 14.3678 2.83636C15.8589 4.38153 15.8798 6.87997 14.4149 8.45176L14.4077 8.45954L12.4489 10.4893C12.4489 10.4893 12.4489 10.4893 12.4489 10.4893C11.656 11.3112 10.5576 11.7359 9.43895 11.6528C8.32026 11.5698 7.29153 10.9874 6.61974 10.0567C6.42098 9.78131 6.47526 9.39111 6.74098 9.18514C7.00669 8.97917 7.38322 9.03542 7.58198 9.31078C8.04493 9.95216 8.75386 10.3535 9.52479 10.4108C10.2957 10.468 11.0526 10.1754 11.599 9.60891L13.554 7.58295C14.5601 6.49956 14.5445 4.78051 13.5181 3.71689C12.4916 2.65307 10.8323 2.63713 9.7869 3.6803L8.66709 4.83401C8.43177 5.07645 8.05136 5.0753 7.8174 4.83144C7.58345 4.58758 7.58456 4.19335 7.81988 3.95091L8.94913 2.78756Z" fill="#616061"/>
<path fill-rule="evenodd" clip-rule="evenodd" d="M4.5512 6.8368C5.3441 6.01486 6.4424 5.59031 7.56105 5.67333C8.67974 5.75636 9.70847 6.3388 10.3803 7.2695C10.579 7.54486 10.5247 7.93506 10.259 8.14103C9.99331 8.347 9.61678 8.29075 9.41802 8.01539C8.95507 7.37401 8.24614 6.97263 7.47521 6.91541C6.70429 6.8582 5.94739 7.15079 5.40097 7.71725L3.44597 9.7432C2.43993 10.8266 2.4555 12.5456 3.48186 13.6093C4.50822 14.6729 6.16706 14.689 7.2125 13.6465L8.32514 12.4934C8.55977 12.2503 8.94019 12.2503 9.17483 12.4934C9.40946 12.7366 9.40946 13.1308 9.17483 13.374L8.05093 14.5386C6.5342 16.0567 4.12322 16.0349 2.63217 14.4898C1.14113 12.9446 1.12018 10.4462 2.58509 8.87441L2.59234 8.86662L4.5512 6.8368C4.55122 6.83677 4.55117 6.83682 4.5512 6.8368Z" fill="#616061"/>
</svg>
